<svg width="133" height="155" viewBox="0 0 133 155" fill="none" xmlns="http://www.w3.org/2000/svg">
<path fill-rule="evenodd" clip-rule="evenodd" d="M31.4635 118.098H46.0991V123.532H40.6651H31.6195C31.6195 123.532 24.9885 123.913 24.9885 116.901V48.4873H108.44V117.158C108.44 117.158 107.173 123.274 102.324 123.274H93.0203V145.31C93.0203 145.31 92.6544 154.613 83.7273 154.613C74.8099 154.613 74.4238 145.31 74.4238 145.31V123.913H59.143V145.953C59.143 145.953 59.2717 154.356 49.5825 154.232C49.5825 154.232 40.6651 154.109 40.6651 145.31V123.532C46.0991 123.532 46.0991 123.532 46.0991 123.532V145.31C46.0991 146.543 46.395 147.126 46.5741 147.393C46.7786 147.699 47.0953 147.978 47.5819 148.224C48.0871 148.481 48.6563 148.639 49.1431 148.726C49.3739 148.767 49.5544 148.787 49.6561 148.795C49.6806 148.797 49.6999 148.799 49.7134 148.799C51.2922 148.811 52.099 148.483 52.4715 148.271C52.8456 148.058 53.0826 147.789 53.266 147.465C53.4704 147.103 53.5958 146.685 53.6612 146.316C53.6918 146.143 53.7036 146.013 53.7078 145.95C53.7084 145.943 53.7087 145.936 53.709 145.931V118.479H79.8577V145.102C79.8582 145.107 79.8587 145.111 79.8592 145.116C79.8721 145.233 79.899 145.435 79.9506 145.692C80.0587 146.229 80.2485 146.871 80.5511 147.452C80.8469 148.02 81.1848 148.408 81.5549 148.658C81.8794 148.877 82.4988 149.179 83.7273 149.179C84.9595 149.179 85.5788 148.877 85.9013 148.659C86.2692 148.41 86.6048 148.024 86.8986 147.458C87.1993 146.879 87.3876 146.238 87.4944 145.702C87.5455 145.446 87.5719 145.244 87.5845 145.127C87.5852 145.121 87.5858 145.115 87.5863 145.11V117.84H102.228C102.296 117.771 102.41 117.638 102.548 117.408C102.742 117.088 102.897 116.725 103.006 116.41V53.9212H30.4224V116.901C30.4224 117.522 30.5215 117.81 30.5617 117.9C30.5742 117.907 30.5931 117.917 30.6205 117.93C30.7663 117.999 30.9859 118.057 31.2244 118.086C31.3093 118.096 31.375 118.1 31.4117 118.101L31.4635 118.098ZM30.5706 117.918C30.5711 117.919 30.5715 117.92 30.572 117.92C30.5817 117.935 30.5797 117.936 30.5706 117.918Z" fill="#62C4F6"/>
<path fill-rule="evenodd" clip-rule="evenodd" d="M126.7 97.3173V97.0273H132.134C132.134 97.0273 133.044 105.534 123.632 105.534C114.24 105.534 113.983 99.3187 113.983 96.6412V57.5334C119.417 57.5334 119.417 57.5336 119.417 57.5339V57.5944C119.416 57.6056 119.416 57.6119 119.416 57.6129C119.416 57.6139 119.416 57.6074 119.417 57.5944L119.416 57.57L119.417 57.5537V57.5438L119.417 57.5387C119.417 57.5361 119.417 57.5334 113.999 57.5334H113.983C113.983 57.5334 113.983 48.4873 123.028 48.4873C132.074 48.4873 132.134 56.2565 132.134 57.5978V97.0273C126.7 97.0273 126.7 97.0276 126.7 97.0273V57.5978C126.7 57.0433 126.648 55.9613 126.198 55.1324C126.023 54.811 125.818 54.5853 125.518 54.4095C125.212 54.2298 124.497 53.9212 123.028 53.9212C121.718 53.9212 121.096 54.2333 120.813 54.422C120.496 54.6334 120.217 54.9542 119.974 55.4404C119.72 55.9478 119.566 56.521 119.484 57.0133C119.445 57.2465 119.428 57.429 119.42 57.5319C119.418 57.5597 119.417 57.5807 119.417 57.5944V96.6412C119.417 97.9449 119.553 98.6902 119.829 99.1118C119.903 99.2239 120.041 99.4019 120.45 99.5922C120.912 99.8064 121.867 100.1 123.632 100.1C125.151 100.1 125.789 99.7651 125.989 99.6362C126.185 99.5098 126.325 99.3475 126.45 99.0664C126.596 98.7394 126.681 98.3301 126.711 97.9373C126.725 97.7563 126.725 97.617 126.723 97.5449C126.722 97.5373 126.722 97.5305 126.722 97.5248L126.7 97.3173Z" fill="#62C4F6"/>
<path fill-rule="evenodd" clip-rule="evenodd" d="M13.5072 97.311L13.5072 97.0273L18.9412 97.0273C18.9412 97.0273 19.832 105.534 10.4297 105.534C1.03752 105.534 0.790283 99.3187 0.790283 96.6412V57.5334C6.22422 57.5334 6.22422 57.5336 6.22422 57.5339V57.5944L6.22408 57.57L6.22422 57.5537V57.5438L6.22421 57.5387C6.22422 57.5361 6.22422 57.5334 0.795646 57.5334H0.790283C0.790283 57.5334 0.790283 48.4873 9.83586 48.4873C18.882 48.4873 18.9413 56.2565 18.9413 57.5978L18.9412 97.0273C13.5072 97.0273 13.5072 97.0276 13.5072 97.0273L13.5074 57.5978C13.5074 57.0433 13.4555 55.9613 13.0054 55.1324C12.831 54.811 12.6257 54.5853 12.326 54.4095C12.0196 54.2298 11.3042 53.9212 9.83586 53.9212C8.52539 53.9212 7.90379 54.2333 7.62072 54.422C7.30362 54.6334 7.02437 54.9542 6.7813 55.4404C6.5276 55.9478 6.37366 56.521 6.29163 57.0133C6.25276 57.2465 6.23543 57.429 6.22808 57.5319C6.22609 57.5597 6.2249 57.5807 6.22422 57.5944V96.6412C6.22422 97.9516 6.35954 98.6954 6.63477 99.1159C6.70726 99.2267 6.84326 99.4034 7.25107 99.5928C7.7105 99.8063 8.6649 100.1 10.4297 100.1C11.9447 100.1 12.5828 99.7656 12.7847 99.6356C12.9835 99.5077 13.1251 99.3429 13.2522 99.0591C13.3996 98.73 13.4853 98.3191 13.5166 97.9258C13.531 97.7445 13.5308 97.605 13.529 97.5328C13.5288 97.5251 13.5285 97.5183 13.5283 97.5125L13.5072 97.311Z" fill="#62C4F6"/>
<path fill-rule="evenodd" clip-rule="evenodd" d="M84.5093 12.0362C83.6151 11.6702 82.7034 11.3313 81.7755 11.0206C77.2598 9.50881 72.3601 8.66567 67.2289 8.61226C61.7417 8.56962 56.4814 9.43742 51.6426 11.071C50.852 11.3379 50.0727 11.6252 49.3054 11.9324C49.2056 11.7889 49.0987 11.6355 48.9857 11.4732C47.6361 9.53543 45.4026 6.33397 43.6079 3.81737C42.5084 2.27563 41.5735 0.99094 41.1074 0.411319C40.958 0.225571 40.8567 0.112232 40.8136 0.086047C40.7107 0.0234154 40.5991 -0.000917014 40.4867 2.63212e-05C40.487 2.41462e-05 40.4865 2.82787e-05 40.4867 2.63212e-05C40.0481 0.00411584 39.5964 0.392603 39.5964 0.392603C38.2799 1.41221 38.8835 1.91681 38.8835 1.91681L46.4946 13.1596C45.7576 13.5168 45.0339 13.8934 44.3245 14.2886C43.4441 14.7791 42.5856 15.2983 41.7506 15.8451C34.1608 20.8151 28.513 28.0617 26.0199 36.6847C25.512 38.4414 25.1351 40.2553 24.8993 42.1186H108.41C108.185 40.2551 107.82 38.4413 107.324 36.6847C104.882 28.0257 99.2704 20.758 91.6707 15.7857C90.9475 15.3125 90.2063 14.8602 89.448 14.4294C88.6262 13.9624 87.7844 13.5208 86.924 13.1055L94.1291 2.42661C94.1433 2.40657 94.1572 2.3867 94.1707 2.36701C94.2096 2.31023 94.2455 2.25491 94.2786 2.20102C94.2785 2.20109 94.2786 2.20096 94.2786 2.20102C95.221 0.663165 93.822 0.288731 93.822 0.288731C92.8029 -0.527627 91.9912 0.902405 91.9912 0.902405L84.5093 12.0362ZM83.6102 17.5398L82.4505 17.0651C77.8541 15.1833 72.6878 14.1042 67.1793 14.046C61.4965 14.0028 56.1233 15.0561 51.325 16.9771L49.8995 17.5477L48.8648 18.0493C40.6579 22.0276 34.5206 28.6346 31.7219 36.6847H101.635C98.8916 28.5909 92.788 21.9694 84.562 17.9992L83.6102 17.5398ZM39.5964 0.392603C39.694 0.505945 39.789 0.616165 39.8813 0.723354L39.5964 0.392603Z" fill="#62C4F6"/>
<circle cx="49.7965" cy="25.7929" r="4.29879" fill="#62C4F6"/>
<circle cx="84.1868" cy="25.7929" r="4.29879" fill="#62C4F6"/>
</svg>
