<svg width="306" height="306" viewBox="0 0 306 306" fill="none" xmlns="http://www.w3.org/2000/svg">
<circle opacity="0.8" cx="153" cy="153" r="153" fill="#8582D9"/>
<path d="M217.71 225.888C238.823 207.607 252.256 180.682 252.256 150.628C252.256 95.6914 207.564 51 152.628 51C97.6914 51 53 95.6914 53 150.628C53 180.682 66.4332 207.607 87.546 225.888L79.0942 239.978C78.3138 241.273 77.907 242.751 77.907 244.253V251.842C77.907 254.93 81.1532 256.931 83.9179 255.553L92.353 251.335C93.7644 250.629 94.9433 249.534 95.757 248.18L102.656 236.682C117.368 245.258 134.404 250.256 152.628 250.256C170.852 250.256 187.888 245.258 202.6 236.682L209.499 248.189C210.312 249.542 211.491 250.638 212.903 251.343L221.338 255.561C224.103 256.931 227.349 254.93 227.349 251.842V244.253C227.349 242.751 226.942 241.273 226.162 239.986L217.71 225.888ZM152.628 233.651C137.526 233.651 123.404 229.533 111.191 222.46L119.776 208.146C129.772 213.875 140.963 217.047 152.628 217.047C164.608 217.047 175.825 213.817 185.538 208.246L194.073 222.468C181.852 229.533 167.73 233.651 152.628 233.651ZM142.424 170.404L148.028 174.14C149.415 175.07 151.026 175.535 152.628 175.535C154.23 175.535 155.841 175.07 157.236 174.14L162.84 170.404L177.012 194.024C169.789 198.092 161.486 200.442 152.628 200.442C144.002 200.442 135.716 198.134 128.294 193.949L142.424 170.404ZM136.023 134.023C136.023 124.849 143.454 117.419 152.628 117.419C161.802 117.419 169.233 124.849 169.233 134.023C169.233 143.197 161.802 150.628 152.628 150.628C143.454 150.628 136.023 143.197 136.023 134.023ZM209.009 211.393L200.258 196.805C211.865 184.842 219.047 168.569 219.047 150.628C219.047 146.045 215.327 142.326 210.744 142.326C206.161 142.326 202.442 146.045 202.442 150.628C202.442 162.475 198.266 173.368 191.333 181.928L178.257 160.134L182.143 157.544C184.451 155.991 185.837 153.401 185.837 150.628V117.419C185.837 112.836 182.118 109.116 177.535 109.116H169.233V92.5116C169.233 87.9287 165.513 84.2093 160.93 84.2093H144.326C139.743 84.2093 136.023 87.9287 136.023 92.5116V109.116H127.721C123.138 109.116 119.419 112.836 119.419 117.419V150.628C119.419 153.401 120.805 155.991 123.113 157.535L126.999 160.126L96.2385 211.393C79.9078 196.224 69.6047 174.63 69.6047 150.628C69.6047 104.849 106.849 67.6047 152.628 67.6047C198.407 67.6047 235.651 104.849 235.651 150.628C235.651 174.63 225.348 196.224 209.009 211.393Z" fill="white"/>
</svg>
