<svg width="146" height="172" viewBox="0 0 146 172" fill="none" xmlns="http://www.w3.org/2000/svg">
<path fill-rule="evenodd" clip-rule="evenodd" d="M34.8165 131.347H50.9766V137.347H44.9766H34.9887C34.9887 137.347 27.6669 137.768 27.6669 130.025V54.4851H119.812V130.309C119.812 130.309 118.413 137.063 113.058 137.063H102.786V161.394C102.786 161.394 102.382 171.667 92.5247 171.667C82.6783 171.667 82.252 161.394 82.252 161.394V137.768H65.3793V162.104C65.3793 162.104 65.5215 171.382 54.8229 171.246C54.8229 171.246 44.9766 171.109 44.9766 161.394V137.347C50.9766 137.347 50.9766 137.347 50.9766 137.347V161.394C50.9766 162.756 51.3034 163.399 51.5011 163.694C51.727 164.032 52.0766 164.34 52.6139 164.612C53.1717 164.895 53.8003 165.07 54.3377 165.166C54.5926 165.211 54.7919 165.233 54.9041 165.242C54.9313 165.245 54.9525 165.246 54.9674 165.247C56.7108 165.26 57.6016 164.898 58.0129 164.663C58.4259 164.428 58.6877 164.131 58.8901 163.773C59.1158 163.374 59.2543 162.912 59.3265 162.505C59.3603 162.314 59.3734 162.17 59.378 162.101C59.3786 162.092 59.379 162.085 59.3793 162.08V131.768H88.252V161.165C88.2525 161.17 88.2531 161.174 88.2536 161.18C88.2678 161.309 88.2975 161.532 88.3545 161.815C88.4739 162.408 88.6834 163.117 89.0176 163.759C89.3442 164.386 89.7173 164.815 90.126 165.091C90.4843 165.333 91.1682 165.667 92.5247 165.667C93.8853 165.667 94.569 165.332 94.9251 165.091C95.3313 164.817 95.702 164.391 96.0263 163.766C96.3584 163.126 96.5662 162.419 96.6842 161.827C96.7406 161.544 96.7698 161.321 96.7837 161.192C96.7844 161.185 96.7851 161.179 96.7857 161.173V131.063H112.953C113.028 130.986 113.153 130.839 113.306 130.586C113.52 130.232 113.691 129.831 113.812 129.483V60.4851H33.6669V130.025C33.6669 130.711 33.7763 131.03 33.8207 131.128C33.8345 131.137 33.8554 131.148 33.8856 131.162C34.0466 131.238 34.2891 131.303 34.5524 131.334C34.6461 131.345 34.7187 131.349 34.7592 131.35L34.8165 131.347ZM33.8305 131.149C33.831 131.15 33.8315 131.15 33.8321 131.151C33.8428 131.168 33.8405 131.168 33.8305 131.149Z" fill="#62C4F6"/>
<path fill-rule="evenodd" clip-rule="evenodd" d="M139.974 108.402V108.082H145.974C145.974 108.082 146.979 117.474 136.587 117.474C126.215 117.474 125.932 110.612 125.932 107.655V64.4736C131.932 64.4736 131.932 64.4738 131.932 64.4741V64.5409C131.931 64.5533 131.931 64.5602 131.931 64.5613C131.931 64.5624 131.932 64.5553 131.932 64.5409L131.932 64.514L131.932 64.496V64.485L131.932 64.4794C131.932 64.4765 131.932 64.4736 125.95 64.4736H125.932C125.932 64.4736 125.932 54.4851 135.92 54.4851C145.908 54.4851 145.974 63.0636 145.974 64.5447V108.082C139.974 108.082 139.974 108.082 139.974 108.082V64.5447C139.974 63.9324 139.916 62.7377 139.419 61.8224C139.227 61.4676 139 61.2183 138.669 61.0242C138.331 60.8258 137.541 60.4851 135.92 60.4851C134.473 60.4851 133.786 60.8296 133.474 61.038C133.124 61.2715 132.815 61.6257 132.547 62.1625C132.267 62.7228 132.097 63.3557 132.006 63.8992C131.963 64.1568 131.944 64.3582 131.936 64.4719C131.934 64.5026 131.933 64.5258 131.932 64.5409V107.655C131.932 109.095 132.082 109.918 132.387 110.383C132.469 110.507 132.621 110.704 133.073 110.914C133.583 111.15 134.638 111.474 136.587 111.474C138.264 111.474 138.968 111.105 139.189 110.962C139.406 110.823 139.559 110.644 139.698 110.333C139.859 109.972 139.953 109.52 139.986 109.086C140.002 108.887 140.001 108.733 139.999 108.653C139.999 108.645 139.998 108.637 139.998 108.631L139.974 108.402Z" fill="#62C4F6"/>
<path fill-rule="evenodd" clip-rule="evenodd" d="M14.9896 108.395L14.9896 108.082L20.9896 108.082C20.9896 108.082 21.9732 117.474 11.5915 117.474C1.22087 117.474 0.947876 110.612 0.947876 107.655V64.4736C6.94788 64.4736 6.94788 64.4738 6.94788 64.4741V64.5409L6.94773 64.514L6.94788 64.496V64.485L6.94787 64.4794C6.94788 64.4765 6.94788 64.4736 0.953798 64.4736H0.947876C0.947876 64.4736 0.947876 54.4851 10.9358 54.4851C20.9242 54.4851 20.9897 63.0636 20.9897 64.5447L20.9896 108.082C14.9896 108.082 14.9896 108.082 14.9896 108.082L14.9897 64.5447C14.9897 63.9324 14.9325 62.7377 14.4355 61.8224C14.2429 61.4676 14.0162 61.2183 13.6853 61.0242C13.347 60.8258 12.557 60.4851 10.9358 60.4851C9.48877 60.4851 8.80241 60.8296 8.48985 61.038C8.13972 61.2715 7.83138 61.6257 7.56299 62.1625C7.28286 62.7228 7.11289 63.3557 7.02231 63.8992C6.97939 64.1568 6.96025 64.3582 6.95214 64.4719C6.94994 64.5026 6.94863 64.5258 6.94788 64.5409V107.655C6.94788 109.102 7.09729 109.923 7.4012 110.388C7.48124 110.51 7.63141 110.705 8.0817 110.914C8.58899 111.15 9.64281 111.474 11.5915 111.474C13.2643 111.474 13.9689 111.105 14.1918 110.962C14.4113 110.82 14.5676 110.638 14.7079 110.325C14.8707 109.962 14.9654 109.508 14.9999 109.074C15.0158 108.874 15.0156 108.719 15.0136 108.64C15.0133 108.631 15.0131 108.624 15.0129 108.617L14.9896 108.395Z" fill="#62C4F6"/>
<path fill-rule="evenodd" clip-rule="evenodd" d="M93.3881 14.2369C92.4008 13.8327 91.3941 13.4585 90.3695 13.1154C85.3834 11.4461 79.9733 10.5152 74.3075 10.4562C68.2488 10.4091 62.4404 11.3673 57.0976 13.171C56.2246 13.4657 55.3641 13.783 54.5169 14.1222C54.4067 13.9638 54.2887 13.7944 54.1639 13.6151C52.6737 11.4755 50.2076 7.94057 48.2259 5.16181C47.0118 3.45947 45.9796 2.04095 45.4649 1.40094C45.2999 1.19585 45.1881 1.0707 45.1405 1.04179C45.0269 0.972632 44.9037 0.945765 44.7796 0.946806C44.7798 0.946804 44.7793 0.946809 44.7796 0.946806C44.2953 0.951322 43.7965 1.38028 43.7965 1.38028C42.3429 2.5061 43.0093 3.06326 43.0093 3.06326L51.4132 15.4772C50.5995 15.8717 49.8005 16.2875 49.0172 16.7239C48.045 17.2654 47.0971 17.8388 46.1751 18.4425C37.7947 23.9303 31.5585 31.9318 28.8057 41.453C28.2449 43.3927 27.8287 45.3955 27.5684 47.453H119.779C119.53 45.3954 119.127 43.3926 118.58 41.453C115.883 31.892 109.687 23.8671 101.295 18.3769C100.497 17.8545 99.6785 17.355 98.8413 16.8793C97.9339 16.3637 97.0044 15.876 96.0543 15.4175L104.01 3.62617C104.026 3.60404 104.041 3.58211 104.056 3.56036C104.099 3.49767 104.139 3.43659 104.175 3.37709C104.175 3.37716 104.175 3.37701 104.175 3.37709C105.216 1.67903 103.671 1.26559 103.671 1.26559C102.546 0.364186 101.649 1.94319 101.649 1.94319L93.3881 14.2369ZM92.3954 20.3138L91.1148 19.7895C86.0396 17.7117 80.3351 16.5202 74.2528 16.456C67.978 16.4082 62.0451 17.5713 56.7469 19.6924L55.1729 20.3225L54.0304 20.8763C44.9686 25.269 38.1919 32.5643 35.1017 41.453H112.298C109.269 32.5161 102.529 25.2048 93.4463 20.821L92.3954 20.3138ZM43.7965 1.38028C43.9043 1.50543 44.0091 1.62713 44.1111 1.74548L43.7965 1.38028Z" fill="#62C4F6"/>
<circle cx="55.0592" cy="29.4265" r="4.74661" fill="#62C4F6"/>
<circle cx="93.032" cy="29.4265" r="4.74661" fill="#62C4F6"/>
</svg>
