<?xml version="1.0" encoding="utf-8"?>
<!-- Designed by Vexels.com - 2016 All Rights Reserved - https://vexels.com/terms-and-conditions/  -->

<svg version="1.1" id="Layer_1" xmlns="http://www.w3.org/2000/svg" xmlns:xlink="http://www.w3.org/1999/xlink" x="0px" y="0px"
	 width="1200px" height="1200px" viewBox="0 0 1200 1200" enable-background="new 0 0 1200 1200" xml:space="preserve">
<g>
	<path fill="#575756" d="M304.851,881.692c0,49.888,47.177,47.177,47.177,47.177h64.355c0,0,0,92.45,0,154.941
		c0,62.599,63.443,63.479,63.443,63.479c68.934,0.88,68.018-58.901,68.018-58.901V931.58H656.56v152.23c0,0,2.747,66.19,66.19,66.19
		c63.512,0,66.115-66.19,66.115-66.19V927.037c0,0,31.758,0,66.19,0c34.501,0,43.514-43.514,43.514-43.514v-488.56H304.851
		C304.851,394.963,304.851,831.873,304.851,881.692z"/>
	<path fill="#575756" d="M1067.138,740.302c0,0,0-271.019,0-280.522c0-9.543-0.422-64.817-64.781-64.817
		c-64.355,0-64.355,64.359-64.355,64.359s0,259.223,0,278.233c0,19.049,1.828,63.266,68.652,63.266
		C1073.616,800.822,1067.138,740.302,1067.138,740.302z"/>
	<path fill="#575756" d="M261.828,459.78c0-9.543-0.422-64.817-64.781-64.817c-64.355,0-64.355,64.359-64.355,64.359
		s0,259.223,0,278.233c0,19.049,1.759,63.266,68.58,63.266c66.893,0,60.555-60.519,60.555-60.519S261.828,469.283,261.828,459.78z"
		/>
	<path fill="#575756" d="M745.492,143.239l51.261-75.975c8.732-12.29-2.185-15.21-2.185-15.21
		c-7.25-5.808-13.025,4.366-13.025,4.366l-53.23,79.212c-37.32-15.279-78.934-23.902-122.942-24.36
		c-45.417-0.353-88.65,8.061-127.517,23.621c-16.054-23.058-57.459-82.485-60.415-84.281c-3.591-2.185-8.66,2.181-8.66,2.181
		c-9.366,7.254-5.072,10.844-5.072,10.844l54.149,79.987c-82.947,40.208-142.093,114.773-153.64,206.03h594.14
		C887.303,258.08,828.651,183.375,745.492,143.239z M475.248,269.945c-18.235,0-33.091-14.857-33.091-33.128
		c0-18.238,14.857-33.059,33.091-33.059c18.307,0,33.164,14.821,33.164,33.059C508.411,255.088,493.555,269.945,475.248,269.945z
		 M729.579,269.945c-18.238,0-33.023-14.857-33.023-33.128c0-18.238,14.785-33.059,33.023-33.059
		c18.379,0,33.164,14.821,33.164,33.059C762.742,255.088,747.958,269.945,729.579,269.945z"/>
</g>
</svg>
