<svg width="111" height="113" viewBox="0 0 111 113" fill="none" xmlns="http://www.w3.org/2000/svg">
<path d="M91.0756 96.4019C102.713 86.3247 110.118 71.4834 110.118 54.9168C110.118 24.6348 85.4832 0 55.2011 0C24.9191 0 0.284302 24.6348 0.284302 54.9168C0.284302 71.4834 7.68892 86.3247 19.3267 96.4019L14.6679 104.168C14.2378 104.882 14.0135 105.697 14.0135 106.525V110.708C14.0135 112.41 15.8029 113.513 17.3268 112.753L21.9765 110.429C22.7544 110.04 23.4043 109.436 23.8528 108.69L27.6558 102.351C35.7652 107.079 45.1559 109.834 55.2011 109.834C65.2463 109.834 74.6371 107.079 82.7465 102.351L86.5495 108.694C86.998 109.44 87.6478 110.044 88.4258 110.433L93.0754 112.758C94.5994 113.513 96.3888 112.41 96.3888 110.708V106.525C96.3888 105.697 96.1645 104.882 95.7343 104.173L91.0756 96.4019ZM55.2011 100.681C46.8767 100.681 39.0922 98.411 32.3603 94.5119L37.0923 86.6222C42.6023 89.7799 48.7713 91.5281 55.2011 91.5281C61.8049 91.5281 67.9876 89.7479 73.342 86.6771L78.0465 94.5165C71.3101 98.411 63.5256 100.681 55.2011 100.681ZM49.5767 65.8178L52.6658 67.8772C53.4301 68.3898 54.3179 68.6461 55.2011 68.6461C56.0844 68.6461 56.9722 68.3898 57.741 67.8772L60.8301 65.8178L68.642 78.8377C64.6606 81.0801 60.0842 82.3753 55.2011 82.3753C50.4463 82.3753 45.879 81.103 41.7877 78.7965L49.5767 65.8178ZM46.0483 45.764C46.0483 40.7071 50.1442 36.6112 55.2011 36.6112C60.2581 36.6112 64.3539 40.7071 64.3539 45.764C64.3539 50.821 60.2581 54.9168 55.2011 54.9168C50.1442 54.9168 46.0483 50.821 46.0483 45.764ZM86.2795 88.4115L81.456 80.3708C87.8538 73.7762 91.8124 64.8065 91.8124 54.9168C91.8124 52.3907 89.7621 50.3404 87.236 50.3404C84.7098 50.3404 82.6596 52.3907 82.6596 54.9168C82.6596 61.4474 80.3576 67.4516 76.5363 72.1699L69.3285 60.1568L71.4703 58.729C72.7425 57.8732 73.5068 56.4454 73.5068 54.9168V36.6112C73.5068 34.0851 71.4565 32.0348 68.9304 32.0348H64.3539V22.882C64.3539 20.3558 62.3037 18.3056 59.7775 18.3056H50.6247C48.0986 18.3056 46.0483 20.3558 46.0483 22.882V32.0348H41.4719C38.9458 32.0348 36.8955 34.0851 36.8955 36.6112V54.9168C36.8955 56.4454 37.6598 57.8732 38.932 58.7244L41.0738 60.1522L24.1182 88.4115C15.1164 80.0505 9.43711 68.1472 9.43711 54.9168C9.43711 29.6826 29.9669 9.15281 55.2011 9.15281C80.4354 9.15281 100.965 29.6826 100.965 54.9168C100.965 68.1472 95.2859 80.0505 86.2795 88.4115Z" fill="#8582D9"/>
</svg>
