<svg width="144" height="144" viewBox="0 0 144 144" fill="none" xmlns="http://www.w3.org/2000/svg">
<path d="M109.235 113.668C121.315 103.144 129 87.6464 129 70.3468C129 38.7248 103.431 13 72 13C40.5693 13 15 38.7248 15 70.3468C15 87.6464 22.6855 103.144 34.7648 113.668L29.9293 121.777C29.4828 122.523 29.25 123.373 29.25 124.238V128.606C29.25 130.384 31.1073 131.536 32.689 130.743L37.515 128.315C38.3225 127.909 38.997 127.278 39.4625 126.499L43.4098 119.88C51.8268 124.817 61.5738 127.694 72 127.694C82.4263 127.694 92.1733 124.817 100.59 119.88L104.538 126.504C105.003 127.283 105.678 127.913 106.485 128.32L111.311 130.747C112.893 131.536 114.75 130.384 114.75 128.606V124.238C114.75 123.373 114.517 122.523 114.071 121.782L109.235 113.668ZM72 118.136C63.3598 118.136 55.28 115.765 48.2928 111.694L53.2043 103.455C58.9233 106.752 65.3263 108.578 72 108.578C78.8543 108.578 85.2715 106.719 90.829 103.512L95.712 111.699C88.72 115.765 80.6403 118.136 72 118.136ZM66.1623 81.7301L69.3685 83.8806C70.1618 84.4159 71.0833 84.6835 72 84.6835C72.9168 84.6835 73.8383 84.4159 74.6363 83.8806L77.8425 81.7301L85.9508 95.3261C81.8183 97.6678 77.0683 99.0202 72 99.0202C67.0648 99.0202 62.3243 97.6917 58.0778 95.2831L66.1623 81.7301ZM62.5 60.789C62.5 55.5083 66.7513 51.2312 72 51.2312C77.2488 51.2312 81.5 55.5083 81.5 60.789C81.5 66.0697 77.2488 70.3468 72 70.3468C66.7513 70.3468 62.5 66.0697 62.5 60.789ZM104.257 105.324L99.2508 96.927C105.891 90.0406 110 80.674 110 70.3468C110 67.7088 107.872 65.5679 105.25 65.5679C102.628 65.5679 100.5 67.7088 100.5 70.3468C100.5 77.1663 98.1108 83.4362 94.1445 88.3633L86.6633 75.8186L88.8863 74.3276C90.2068 73.434 91 71.9429 91 70.3468V51.2312C91 48.5932 88.872 46.4523 86.25 46.4523H81.5V36.8945C81.5 34.2565 79.372 32.1156 76.75 32.1156H67.25C64.628 32.1156 62.5 34.2565 62.5 36.8945V46.4523H57.75C55.128 46.4523 53 48.5932 53 51.2312V70.3468C53 71.9429 53.7933 73.434 55.1138 74.3228L57.3368 75.8139L39.738 105.324C30.3948 96.5925 24.5 84.1626 24.5 70.3468C24.5 43.9959 45.8085 22.5578 72 22.5578C98.1915 22.5578 119.5 43.9959 119.5 70.3468C119.5 84.1626 113.605 96.5925 104.257 105.324Z" fill="#9E9E9E"/>
<path fill-rule="evenodd" clip-rule="evenodd" d="M107.949 113.462L108.578 112.914C120.45 102.571 128 87.3434 128 70.3468C128 39.2714 102.873 14 72 14C41.1272 14 16 39.2714 16 70.3468C16 87.3434 23.5497 102.571 35.4216 112.914L36.0514 113.462L30.7872 122.291C30.4344 122.88 30.25 123.553 30.25 124.238V128.606C30.25 129.647 31.3298 130.305 32.2407 129.849L37.0656 127.422C37.7013 127.102 38.2348 126.604 38.6041 125.986L43.0594 118.515L43.9157 119.018C52.1874 123.869 61.7608 126.694 72 126.694C82.2392 126.694 91.8126 123.869 100.084 119.018L100.941 118.515L105.396 125.991C105.765 126.609 106.299 127.107 106.934 127.426L111.757 129.852C111.758 129.853 111.758 129.853 111.758 129.853C112.67 130.307 113.75 129.646 113.75 128.606V124.238C113.75 123.552 113.565 122.881 113.214 122.298L113.212 122.294L107.949 113.462ZM111.311 130.747L106.485 128.32C105.678 127.913 105.003 127.283 104.538 126.504L100.59 119.88C92.1733 124.817 82.4263 127.694 72 127.694C61.5738 127.694 51.8268 124.817 43.4098 119.88L39.4625 126.499C38.997 127.278 38.3225 127.909 37.515 128.315L32.689 130.743C31.1073 131.536 29.25 130.384 29.25 128.606V124.238C29.25 123.373 29.4828 122.523 29.9293 121.777L34.7648 113.668C22.6855 103.144 15 87.6464 15 70.3468C15 38.7248 40.5693 13 72 13C103.431 13 129 38.7248 129 70.3468C129 87.6464 121.315 103.144 109.235 113.668L114.071 121.782C114.517 122.523 114.75 123.373 114.75 124.238V128.606C114.75 130.384 112.893 131.536 111.311 130.747ZM46.9166 112.049L52.85 102.096L53.7038 102.589C59.28 105.804 65.5119 107.578 72 107.578C78.6706 107.578 84.9164 105.769 90.3292 102.646L91.1829 102.154L97.0888 112.055L96.2148 112.563C89.0784 116.714 80.8262 119.136 72 119.136C63.1738 119.136 54.9214 116.714 47.7893 112.558L46.9166 112.049ZM65.8436 80.3123L69.9278 83.0517C70.5511 83.4722 71.2768 83.6835 72 83.6835C72.7228 83.6835 73.4496 83.4725 74.0792 83.0502L78.1612 80.3122L87.3333 95.6921L86.4438 96.1961C82.168 98.619 77.249 100.02 72 100.02C66.8822 100.02 61.9727 98.6419 57.5844 96.1529L56.6953 95.6486L65.8436 80.3123ZM104.033 106.901L98.0005 96.7829L98.5309 96.2329C105 89.5242 109 80.4032 109 70.3468C109 68.2554 107.314 66.5679 105.25 66.5679C103.186 66.5679 101.5 68.2554 101.5 70.3468C101.5 77.4038 99.0267 83.8931 94.9235 88.9903L94.022 90.1102L85.3187 75.5164L88.3258 73.4994C88.3262 73.4992 88.3266 73.4989 88.327 73.4986C89.3724 72.7905 90 71.6099 90 70.3468V51.2312C90 49.1398 88.314 47.4523 86.25 47.4523H80.5V36.8945C80.5 34.8031 78.814 33.1156 76.75 33.1156H67.25C65.186 33.1156 63.5 34.8031 63.5 36.8945V47.4523H57.75C55.686 47.4523 54 49.1398 54 51.2312V70.3468C54 71.6109 54.6283 72.7906 55.6722 73.4933L58.6813 75.5116L39.9615 106.901L39.0552 106.054C29.52 97.1438 23.5 84.4535 23.5 70.3468C23.5 43.4494 45.2505 21.5578 72 21.5578C98.7495 21.5578 120.5 43.4494 120.5 70.3468C120.5 84.4535 114.48 97.1439 104.94 106.054L104.033 106.901ZM55.1138 74.3228C53.7933 73.434 53 71.9429 53 70.3468V51.2312C53 48.5932 55.128 46.4523 57.75 46.4523H62.5V36.8945C62.5 34.2565 64.628 32.1156 67.25 32.1156H76.75C79.372 32.1156 81.5 34.2565 81.5 36.8945V46.4523H86.25C88.872 46.4523 91 48.5932 91 51.2312V70.3468C91 71.9429 90.2068 73.434 88.8863 74.3276L86.6633 75.8186L94.1445 88.3633C94.3689 88.0845 94.5883 87.8014 94.8025 87.5142C98.3735 82.7249 100.5 76.7804 100.5 70.3468C100.5 67.7088 102.628 65.5679 105.25 65.5679C107.872 65.5679 110 67.7088 110 70.3468C110 80.674 105.891 90.0406 99.2508 96.927L104.257 105.324C104.507 105.09 104.755 104.854 104.999 104.616C113.916 95.9271 119.5 83.7933 119.5 70.3468C119.5 43.9959 98.1915 22.5578 72 22.5578C45.8085 22.5578 24.5 43.9959 24.5 70.3468C24.5 83.7932 30.0838 95.9269 38.996 104.615C39.2409 104.854 39.4882 105.09 39.738 105.324L57.3368 75.8139L55.1138 74.3228ZM94.8423 112.193C88.0533 115.957 80.2843 118.136 72 118.136C63.7158 118.136 55.9469 115.957 49.1621 112.188C48.8705 112.027 48.5807 111.862 48.2928 111.694L53.2043 103.455C58.9233 106.752 65.3263 108.578 72 108.578C78.8543 108.578 85.2715 106.719 90.829 103.512L95.712 111.699C95.4239 111.866 95.134 112.031 94.8423 112.193ZM66.1623 81.7301L58.0778 95.2831C58.3683 95.4479 58.6612 95.6077 58.9563 95.7623C62.9739 97.8673 67.4025 99.0202 72 99.0202C76.7126 99.0202 81.15 97.8509 85.0717 95.8044C85.3677 95.6499 85.6607 95.4904 85.9508 95.3261L77.8425 81.7301L74.6363 83.8806C73.8383 84.4159 72.9168 84.6835 72 84.6835C71.0833 84.6835 70.1618 84.4159 69.3685 83.8806L66.1623 81.7301ZM61.5 60.789C61.5 54.9618 66.1933 50.2312 72 50.2312C77.8068 50.2312 82.5 54.9618 82.5 60.789C82.5 66.6162 77.8068 71.3468 72 71.3468C66.1933 71.3468 61.5 66.6162 61.5 60.789ZM72 51.2312C66.7513 51.2312 62.5 55.5083 62.5 60.789C62.5 66.0697 66.7513 70.3468 72 70.3468C77.2488 70.3468 81.5 66.0697 81.5 60.789C81.5 55.5083 77.2488 51.2312 72 51.2312Z" fill="#EBEDF3"/>
</svg>
