<svg width="146" height="172" viewBox="0 0 146 172" fill="none" xmlns="http://www.w3.org/2000/svg">
<path fill-rule="evenodd" clip-rule="evenodd" d="M33.8686 131.347H50.0287V137.347H44.0287H34.0409C34.0409 137.347 26.719 137.768 26.719 130.025V54.4851H118.864V130.309C118.864 130.309 117.465 137.063 112.111 137.063H101.838V161.394C101.838 161.394 101.434 171.667 91.5768 171.667C81.7305 171.667 81.3041 161.394 81.3041 161.394V137.768H64.4314V162.104C64.4314 162.104 64.5736 171.382 53.8751 171.246C53.8751 171.246 44.0287 171.109 44.0287 161.394V137.347C50.0287 137.347 50.0287 137.347 50.0287 137.347V161.394C50.0287 162.756 50.3555 163.399 50.5533 163.694C50.7791 164.032 51.1287 164.34 51.666 164.612C52.2239 164.895 52.8524 165.07 53.3899 165.166C53.6447 165.211 53.844 165.233 53.9563 165.242C53.9834 165.245 54.0046 165.246 54.0195 165.247C55.7629 165.26 56.6537 164.898 57.065 164.663C57.4781 164.428 57.7398 164.131 57.9422 163.773C58.168 163.374 58.3064 162.912 58.3786 162.505C58.4125 162.314 58.4255 162.17 58.4301 162.101C58.4307 162.092 58.4311 162.085 58.4314 162.08V131.768H87.3041V161.165C87.3046 161.17 87.3052 161.174 87.3057 161.18C87.32 161.309 87.3497 161.532 87.4067 161.815C87.526 162.408 87.7356 163.117 88.0698 163.759C88.3963 164.386 88.7694 164.815 89.1781 165.091C89.5364 165.333 90.2204 165.667 91.5768 165.667C92.9374 165.667 93.6212 165.332 93.9773 165.091C94.3835 164.817 94.7541 164.391 95.0784 163.766C95.4105 163.126 95.6183 162.419 95.7364 161.827C95.7927 161.544 95.8219 161.321 95.8358 161.192C95.8365 161.185 95.8372 161.179 95.8378 161.173V131.063H112.005C112.08 130.986 112.205 130.839 112.358 130.586C112.572 130.232 112.743 129.831 112.864 129.483V60.4851H32.719V130.025C32.719 130.711 32.8284 131.03 32.8728 131.128C32.8866 131.137 32.9075 131.148 32.9377 131.162C33.0987 131.238 33.3412 131.303 33.6045 131.334C33.6982 131.345 33.7708 131.349 33.8113 131.35L33.8686 131.347ZM32.8826 131.149C32.8831 131.15 32.8837 131.15 32.8842 131.151C32.8949 131.168 32.8927 131.168 32.8826 131.149Z" fill="white"/>
<path fill-rule="evenodd" clip-rule="evenodd" d="M139.026 108.402V108.082H145.026C145.026 108.082 146.031 117.474 135.639 117.474C125.268 117.474 124.984 110.612 124.984 107.655V64.4736C130.984 64.4736 130.984 64.4738 130.984 64.4741V64.5409C130.983 64.5533 130.983 64.5602 130.983 64.5613C130.983 64.5624 130.984 64.5553 130.984 64.5409L130.984 64.514L130.984 64.496V64.485L130.984 64.4794C130.984 64.4765 130.984 64.4736 125.002 64.4736H124.984C124.984 64.4736 124.984 54.4851 134.972 54.4851C144.96 54.4851 145.026 63.0636 145.026 64.5447V108.082C139.026 108.082 139.026 108.082 139.026 108.082V64.5447C139.026 63.9324 138.968 62.7377 138.471 61.8224C138.279 61.4676 138.052 61.2183 137.721 61.0242C137.383 60.8258 136.593 60.4851 134.972 60.4851C133.525 60.4851 132.838 60.8296 132.526 61.038C132.176 61.2715 131.867 61.6257 131.599 62.1625C131.319 62.7228 131.149 63.3557 131.058 63.8992C131.015 64.1568 130.996 64.3582 130.988 64.4719C130.986 64.5026 130.985 64.5258 130.984 64.5409V107.655C130.984 109.095 131.134 109.918 131.44 110.383C131.521 110.507 131.673 110.704 132.125 110.914C132.635 111.15 133.69 111.474 135.639 111.474C137.316 111.474 138.02 111.105 138.241 110.962C138.458 110.823 138.612 110.644 138.75 110.333C138.911 109.972 139.005 109.52 139.038 109.086C139.054 108.887 139.053 108.733 139.051 108.653C139.051 108.645 139.05 108.637 139.05 108.631L139.026 108.402Z" fill="white"/>
<path fill-rule="evenodd" clip-rule="evenodd" d="M14.0417 108.395L14.0417 108.082L20.0417 108.082C20.0417 108.082 21.0254 117.474 10.6436 117.474C0.272997 117.474 0 110.612 0 107.655V64.4736C6 64.4736 6 64.4738 6 64.4741V64.5409L5.99985 64.514L6 64.496V64.485L6 64.4794C6 64.4765 6 64.4736 0.00592171 64.4736H0C0 64.4736 0 54.4851 9.98788 54.4851C19.9764 54.4851 20.0419 63.0636 20.0419 64.5447L20.0417 108.082C14.0417 108.082 14.0417 108.082 14.0417 108.082L14.0419 64.5447C14.0419 63.9324 13.9846 62.7377 13.4876 61.8224C13.295 61.4676 13.0684 61.2183 12.7374 61.0242C12.3991 60.8258 11.6091 60.4851 9.98788 60.4851C8.54089 60.4851 7.85454 60.8296 7.54198 61.038C7.19184 61.2715 6.8835 61.6257 6.61511 62.1625C6.33498 62.7228 6.16501 63.3557 6.07443 63.8992C6.03152 64.1568 6.01238 64.3582 6.00426 64.4719C6.00207 64.5026 6.00075 64.5258 6 64.5409V107.655C6 109.102 6.14941 109.923 6.45332 110.388C6.53336 110.51 6.68353 110.705 7.13382 110.914C7.64112 111.15 8.69494 111.474 10.6436 111.474C12.3164 111.474 13.021 111.105 13.2439 110.962C13.4634 110.82 13.6197 110.638 13.7601 110.325C13.9229 109.962 14.0175 109.508 14.0521 109.074C14.068 108.874 14.0677 108.719 14.0657 108.64C14.0655 108.631 14.0652 108.624 14.065 108.617L14.0417 108.395Z" fill="white"/>
<path fill-rule="evenodd" clip-rule="evenodd" d="M92.4402 14.2369C91.4529 13.8327 90.4462 13.4585 89.4216 13.1154C84.4355 11.4461 79.0254 10.5152 73.3597 10.4562C67.3009 10.4091 61.4926 11.3673 56.1497 13.171C55.2768 13.4657 54.4162 13.783 53.5691 14.1222C53.4588 13.9638 53.3408 13.7944 53.216 13.6151C51.7258 11.4755 49.2597 7.94057 47.278 5.16181C46.0639 3.45947 45.0317 2.04095 44.517 1.40094C44.352 1.19585 44.2403 1.0707 44.1927 1.04179C44.079 0.972632 43.9558 0.945765 43.8317 0.946806C43.8319 0.946804 43.8314 0.946809 43.8317 0.946806C43.3474 0.951322 42.8486 1.38028 42.8486 1.38028C41.395 2.5061 42.0615 3.06326 42.0615 3.06326L50.4654 15.4772C49.6516 15.8717 48.8526 16.2875 48.0693 16.7239C47.0972 17.2654 46.1492 17.8388 45.2272 18.4425C36.8468 23.9303 30.6106 31.9318 27.8579 41.453C27.2971 43.3927 26.8808 45.3955 26.6205 47.453H118.831C118.583 45.3954 118.179 43.3926 117.632 41.453C114.935 31.892 108.739 23.8671 100.348 18.3769C99.5491 17.8545 98.7306 17.355 97.8934 16.8793C96.986 16.3637 96.0565 15.876 95.1064 15.4175L103.062 3.62617C103.078 3.60404 103.093 3.58211 103.108 3.56036C103.151 3.49767 103.191 3.43659 103.227 3.37709C103.227 3.37716 103.227 3.37701 103.227 3.37709C104.268 1.67903 102.723 1.26559 102.723 1.26559C101.598 0.364186 100.702 1.94319 100.702 1.94319L92.4402 14.2369ZM91.4475 20.3138L90.1669 19.7895C85.0917 17.7117 79.3872 16.5202 73.3049 16.456C67.0302 16.4082 61.0972 17.5713 55.799 19.6924L54.2251 20.3225L53.0826 20.8763C44.0207 25.269 37.244 32.5643 34.1538 41.453H111.35C108.321 32.5161 101.581 25.2048 92.4984 20.821L91.4475 20.3138ZM42.8486 1.38028C42.9564 1.50543 43.0613 1.62713 43.1632 1.74548L42.8486 1.38028Z" fill="white"/>
<circle cx="54.1114" cy="29.4265" r="4.74661" fill="white"/>
<circle cx="92.0841" cy="29.4265" r="4.74661" fill="white"/>
</svg>
