<svg width="144" height="144" viewBox="0 0 144 144" fill="none" xmlns="http://www.w3.org/2000/svg">
<path d="M109.235 113.668C121.315 103.144 129 87.6464 129 70.3468C129 38.7248 103.431 13 72 13C40.5693 13 15 38.7248 15 70.3468C15 87.6464 22.6855 103.144 34.7648 113.668L29.9293 121.777C29.4828 122.523 29.25 123.373 29.25 124.238V128.606C29.25 130.384 31.1073 131.536 32.689 130.743L37.515 128.315C38.3225 127.909 38.997 127.278 39.4625 126.499L43.4098 119.88C51.8268 124.817 61.5738 127.694 72 127.694C82.4263 127.694 92.1733 124.817 100.59 119.88L104.538 126.504C105.003 127.283 105.678 127.913 106.485 128.32L111.311 130.747C112.893 131.536 114.75 130.384 114.75 128.606V124.238C114.75 123.373 114.517 122.523 114.071 121.782L109.235 113.668ZM72 118.136C63.3598 118.136 55.28 115.765 48.2928 111.694L53.2043 103.455C58.9233 106.752 65.3263 108.578 72 108.578C78.8543 108.578 85.2715 106.719 90.829 103.512L95.712 111.699C88.72 115.765 80.6403 118.136 72 118.136ZM66.1623 81.7301L69.3685 83.8806C70.1618 84.4159 71.0833 84.6835 72 84.6835C72.9168 84.6835 73.8383 84.4159 74.6363 83.8806L77.8425 81.7301L85.9508 95.3261C81.8183 97.6678 77.0683 99.0202 72 99.0202C67.0648 99.0202 62.3243 97.6917 58.0778 95.2831L66.1623 81.7301ZM62.5 60.789C62.5 55.5083 66.7513 51.2312 72 51.2312C77.2488 51.2312 81.5 55.5083 81.5 60.789C81.5 66.0697 77.2488 70.3468 72 70.3468C66.7513 70.3468 62.5 66.0697 62.5 60.789ZM104.257 105.324L99.2508 96.927C105.891 90.0406 110 80.674 110 70.3468C110 67.7088 107.872 65.5679 105.25 65.5679C102.628 65.5679 100.5 67.7088 100.5 70.3468C100.5 77.1663 98.1108 83.4362 94.1445 88.3632L86.6632 75.8186L88.8863 74.3276C90.2068 73.434 91 71.9429 91 70.3468V51.2312C91 48.5932 88.872 46.4523 86.25 46.4523H81.5V36.8945C81.5 34.2565 79.372 32.1156 76.75 32.1156H67.25C64.628 32.1156 62.5 34.2565 62.5 36.8945V46.4523H57.75C55.128 46.4523 53 48.5932 53 51.2312V70.3468C53 71.9429 53.7933 73.434 55.1138 74.3228L57.3368 75.8139L39.738 105.324C30.3948 96.5925 24.5 84.1626 24.5 70.3468C24.5 43.9959 45.8085 22.5578 72 22.5578C98.1915 22.5578 119.5 43.9959 119.5 70.3468C119.5 84.1626 113.605 96.5925 104.257 105.324Z" fill="#9E9E9E"/>
</svg>
