<svg width="184" height="189" viewBox="0 0 184 189" fill="none" xmlns="http://www.w3.org/2000/svg">
<path fill-rule="evenodd" clip-rule="evenodd" d="M53.0908 57.7713C53.0908 49.571 59.7083 42.9279 67.8658 42.9279H68.4504C72.5682 42.9279 76.2935 44.6206 78.9734 47.3519C81.6533 44.6206 85.3786 42.9279 89.4964 42.9279H90.081C97.3033 42.9279 103.318 48.1351 104.603 55.0198C106.57 54.0452 108.785 53.4978 111.127 53.4978H112.296C119.519 53.4978 125.534 58.7049 126.818 65.5897C128.786 64.6151 131.001 64.0677 133.342 64.0677H133.927C142.084 64.0677 148.702 70.7108 148.702 78.911V116.815C148.702 118.584 148.439 120.343 147.922 122.035L137.707 155.447C137.438 156.325 137.302 157.239 137.302 158.157V178.738C137.302 184.343 132.778 188.883 127.204 188.883H63.4812C57.9067 188.883 53.3832 184.343 53.3832 178.738V158.351C53.3832 157.346 53.2196 156.347 52.8991 155.395L35.1599 102.693C33.263 97.0579 34.2974 90.8433 37.9152 86.1346L53.0908 66.3828V57.7713ZM53.0908 80.3669L44.6459 91.3584C42.7673 93.8034 42.2307 97.0293 43.2152 99.9543L60.9544 152.656C61.2221 153.451 61.433 154.263 61.586 155.086H129.064C129.191 154.361 129.362 153.643 129.578 152.937L139.793 119.524C140.062 118.646 140.198 117.733 140.198 116.815V78.911C140.198 75.4361 137.393 72.6146 133.927 72.6146H133.342C129.876 72.6146 127.071 75.4361 127.071 78.911L127.071 92.417C127.071 94.7771 125.168 96.6904 122.819 96.6904C120.471 96.6904 118.567 94.7771 118.567 92.417V68.3411C118.567 64.8662 115.762 62.0447 112.296 62.0447H111.127C107.661 62.0447 104.856 64.8662 104.856 68.3411V92.417C104.856 94.7771 102.952 96.6904 100.604 96.6904C98.2558 96.6904 96.3521 94.7771 96.3521 92.417V57.7713C96.3521 54.2963 93.5469 51.4749 90.081 51.4749H89.4964C86.0305 51.4749 83.2253 54.2963 83.2253 57.7713V92.417C83.2253 94.7771 81.3217 96.6904 78.9734 96.6904C76.6251 96.6904 74.7215 94.7771 74.7215 92.417V57.7713C74.7215 54.2963 71.9163 51.4749 68.4504 51.4749H67.8658C64.3999 51.4749 61.5947 54.2963 61.5947 57.7713V92.417C61.5947 94.7771 59.691 96.6904 57.3428 96.6904C54.9945 96.6904 53.0908 94.7771 53.0908 92.417V80.3669ZM128.798 163.633H61.887V178.738C61.887 179.618 62.5983 180.336 63.4812 180.336H127.204C128.087 180.336 128.798 179.618 128.798 178.738V163.633Z" fill="#8582D9"/>
<path fill-rule="evenodd" clip-rule="evenodd" d="M91.9415 1.87645e-07C89.5706 2.91278e-07 87.6487 1.9052 87.6487 4.25539L87.6487 29.1331C87.6487 31.4833 89.5706 33.3885 91.9415 33.3885C94.3123 33.3885 96.2343 31.4833 96.2343 29.1331L96.2343 4.25539C96.2343 1.9052 94.3123 8.40113e-08 91.9415 1.87645e-07Z" fill="#8582D9"/>
<path fill-rule="evenodd" clip-rule="evenodd" d="M36.3978 10.3537C34.3637 11.5281 33.6667 14.1291 34.8411 16.1633L47.2727 37.6954C48.4471 39.7296 51.0482 40.4265 53.0823 39.2521C55.1164 38.0777 55.8134 35.4767 54.639 33.4425L42.2074 11.9104C41.033 9.87623 38.4319 9.17928 36.3978 10.3537Z" fill="#8582D9"/>
<path fill-rule="evenodd" clip-rule="evenodd" d="M146.647 10.3537C148.681 11.5281 149.378 14.1291 148.203 16.1633L135.772 37.6954C134.597 39.7296 131.996 40.4265 129.962 39.2521C127.928 38.0777 127.231 35.4767 128.405 33.4425L140.837 11.9104C142.011 9.87623 144.612 9.17928 146.647 10.3537Z" fill="#8582D9"/>
<path fill-rule="evenodd" clip-rule="evenodd" d="M2.12646 53.131C0.952048 55.1651 1.64899 57.7662 3.68313 58.9406L25.2153 71.3722C27.2494 72.5466 29.8505 71.8497 31.0249 69.8155C32.1993 67.7814 31.5023 65.1803 29.4682 64.0059L7.93605 51.5743C5.90191 50.3999 3.30087 51.0969 2.12646 53.131Z" fill="#8582D9"/>
<path fill-rule="evenodd" clip-rule="evenodd" d="M180.918 53.131C182.092 55.1651 181.395 57.7662 179.361 58.9406L157.829 71.3722C155.795 72.5466 153.194 71.8497 152.019 69.8155C150.845 67.7814 151.542 65.1803 153.576 64.0059L175.108 51.5743C177.142 50.3999 179.743 51.0969 180.918 53.131Z" fill="#8582D9"/>
</svg>
