<svg width="67" height="66" viewBox="0 0 67 66" fill="none" xmlns="http://www.w3.org/2000/svg">
<path d="M26.7437 26.1222C26.7437 23.0122 24.6278 23.0122 24.6278 23.0122H23.5075H15.923V29.6855H24.0882C25.4992 29.6848 26.7437 29.2336 26.7437 26.1222Z" fill="#366B8B"/>
<path d="M24.6285 34.2944H15.923V42.287H24.2265C25.4756 42.2513 27.781 41.8601 27.781 38.402C27.781 34.2526 24.6285 34.2944 24.6285 34.2944Z" fill="#366B8B"/>
<path d="M46.9146 29.6846C42.2951 29.6846 41.651 34.2946 41.651 34.2946H51.4748C51.4755 34.2946 51.5342 29.6846 46.9146 29.6846Z" fill="#366B8B"/>
<path d="M33.1769 0C14.9706 0 0.21167 14.7596 0.21167 32.9652C0.21167 51.1708 14.9706 65.9304 33.1769 65.9304C51.3831 65.9304 66.1421 51.1708 66.1421 32.9652C66.1421 14.7596 51.3831 0 33.1769 0ZM40.3641 19.4574H52.7031V23.1401H40.3641V19.4574ZM34.1279 38.7732C34.1279 47.9009 24.6285 47.6008 24.6285 47.6008H15.923H15.6674H9.06625V17.6957H15.6674H15.923H24.6279C29.3573 17.6957 33.0906 20.3066 33.0906 25.6579C33.0906 31.0099 28.527 31.3492 28.527 31.3492C34.5427 31.3492 34.1279 38.7732 34.1279 38.7732ZM46.9734 43.4898C51.9443 43.4898 51.7683 40.2725 51.7683 40.2725H57.0312C57.0312 48.8108 46.798 48.226 46.798 48.226C34.5178 48.226 35.3076 36.7936 35.3076 36.7936C35.3076 36.7936 35.2981 25.3045 46.7967 25.3045C58.9016 25.3045 57.2066 38.2848 57.2066 38.2848H41.7104C41.7104 43.8419 46.9734 43.4898 46.9734 43.4898Z" fill="#366B8B"/>
</svg>
