<svg width="710" height="131" viewBox="0 0 710 131" fill="none" xmlns="http://www.w3.org/2000/svg">
<path d="M239.662 22.9077V30.3056H210.214V47.8059H236.504V55.2038H210.214V72.9428H240.767V80.4203H202.556V22.9077H239.662Z" fill="#366B8B"/>
<path d="M256.029 81.1362C253.608 81.1362 251.292 80.7119 249.082 79.8634C246.924 79.0149 245.161 77.7687 243.792 76.1247L246.95 71.8292C248.266 73.1019 249.634 74.083 251.055 74.7724C252.529 75.4618 253.976 75.8065 255.398 75.8065C257.134 75.8065 258.555 75.4618 259.661 74.7724C260.766 74.083 261.319 73.0224 261.319 71.5905C261.319 70.4769 260.977 69.5753 260.292 68.8859C259.608 68.1965 258.819 67.6927 257.924 67.3745C257.082 67.0564 255.634 66.5791 253.582 65.9427C248.003 64.1396 245.213 60.9312 245.213 56.3175C245.213 53.5599 246.213 51.2 248.213 49.2378C250.266 47.2756 253.108 46.2945 256.74 46.2945C259.055 46.2945 261.108 46.5862 262.898 47.1696C264.687 47.7529 266.345 48.681 267.871 49.9537L264.95 54.4879C264.108 53.5864 263.029 52.8704 261.713 52.3401C260.45 51.8098 259.24 51.5181 258.082 51.4651C256.608 51.4651 255.345 51.8363 254.292 52.5788C253.24 53.2682 252.713 54.2227 252.713 55.4425C252.713 56.4501 253.055 57.2986 253.74 57.988C254.424 58.6244 255.134 59.1016 255.871 59.4198C256.608 59.685 258.055 60.1623 260.213 60.8517C262.898 61.7532 264.977 62.9199 266.45 64.3517C267.977 65.7836 268.74 67.7192 268.74 70.1587C268.74 73.3406 267.635 75.9656 265.424 78.0339C263.213 80.1021 260.082 81.1362 256.029 81.1362Z" fill="#366B8B"/>
<path d="M284.072 33.0102V47.5673H292.993V53.4538H284.072V80.4203H276.651V53.4538H270.651V47.5673H276.651V33.0102H284.072Z" fill="#366B8B"/>
<path d="M311.732 74.852C314.468 74.852 317.126 73.8974 319.705 71.9883L323.1 77.477C321.363 78.6437 319.469 79.5718 317.416 80.2612C315.416 80.8976 313.468 81.2157 311.574 81.2157C307.942 81.2157 304.758 80.4733 302.021 78.9884C299.337 77.4505 297.258 75.3558 295.784 72.7042C294.31 70.0526 293.573 67.0564 293.573 63.7154C293.573 60.4805 294.363 57.5372 295.942 54.8856C297.573 52.181 299.784 50.0598 302.574 48.5219C305.363 46.9309 308.416 46.1355 311.732 46.1355C315.995 46.1355 319.547 47.4082 322.39 49.9537C325.284 52.4462 327.258 55.9463 328.311 60.4539L302.416 69.6019C303.363 71.2458 304.626 72.5451 306.205 73.4997C307.837 74.4012 309.679 74.852 311.732 74.852ZM311.179 52.0219C308.179 52.0219 305.705 53.0826 303.758 55.2038C301.81 57.3251 300.837 60.0297 300.837 63.3176C300.837 64.1131 300.863 64.723 300.916 65.1472L319.942 58.0675C319.153 56.2645 318.021 54.8061 316.547 53.6924C315.126 52.5788 313.337 52.0219 311.179 52.0219Z" fill="#366B8B"/>
<path d="M352.827 46.1355C355.774 46.1355 358.458 46.8514 360.879 48.2832C363.353 49.7151 365.301 51.7303 366.722 54.3288C368.143 56.9273 368.853 59.9501 368.853 63.3972C368.853 67.0033 368.09 70.1587 366.564 72.8633C365.037 75.5679 362.958 77.6361 360.327 79.068C357.748 80.4998 354.932 81.2157 351.879 81.2157C349.195 81.2157 346.748 80.6854 344.537 79.6248C342.379 78.5642 340.616 77.1323 339.248 75.3293V80.4203H331.905V18.7712H339.248V51.8628C340.616 50.1128 342.484 48.734 344.853 47.7264C347.274 46.6658 349.932 46.1355 352.827 46.1355ZM350.3 74.852C353.511 74.852 356.143 73.7648 358.195 71.5905C360.301 69.4163 361.353 66.6851 361.353 63.3972C361.353 61.2759 360.853 59.3668 359.853 57.6698C358.906 55.9198 357.59 54.5409 355.906 53.5333C354.221 52.5257 352.353 52.0219 350.3 52.0219C347.616 52.0219 345.248 52.7644 343.195 54.2493C341.195 55.6811 339.879 57.5902 339.248 59.9767V66.6586C339.879 69.045 341.195 71.0072 343.195 72.5451C345.195 74.083 347.563 74.852 350.3 74.852Z" fill="#366B8B"/>
<path d="M406.731 47.4878V80.4203H399.388V75.0111C398.23 76.549 396.546 77.9808 394.336 79.3066C392.125 80.5794 389.625 81.2157 386.836 81.2157C383.73 81.2157 380.914 80.5528 378.388 79.2271C375.914 77.8482 373.941 75.8596 372.467 73.261C371.046 70.6625 370.335 67.5601 370.335 63.954C370.335 60.3479 371.072 57.219 372.546 54.5674C374.072 51.8628 376.099 49.7946 378.625 48.3628C381.204 46.8779 384.046 46.1355 387.151 46.1355C389.941 46.1355 392.362 46.7453 394.415 47.965C396.467 49.1848 398.125 50.7757 399.388 52.7379L399.941 47.4878H406.731ZM388.809 75.0906C391.494 75.0906 393.783 74.3482 395.678 72.8633C397.625 71.3254 398.862 69.2572 399.388 66.6586V60.1357C398.757 57.8024 397.441 55.9198 395.441 54.4879C393.441 53.003 391.151 52.2606 388.572 52.2606C386.625 52.2606 384.809 52.7379 383.125 53.6924C381.493 54.647 380.178 55.9993 379.178 57.7493C378.23 59.4463 377.757 61.382 377.757 63.5563C377.757 65.6775 378.257 67.6132 379.257 69.3632C380.257 71.1133 381.599 72.5186 383.283 73.5792C384.967 74.5868 386.809 75.0906 388.809 75.0906Z" fill="#366B8B"/>
<path d="M434.277 46.215C437.33 46.215 439.856 47.1431 441.856 48.9992C443.856 50.8022 444.882 53.1621 444.935 56.0788V80.4203H437.514V58.6244C437.408 56.7683 436.856 55.3099 435.856 54.2493C434.856 53.1886 433.356 52.6318 431.356 52.5788C428.461 52.5788 426.066 53.7455 424.171 56.0788C422.277 58.4122 421.329 61.382 421.329 64.9881V80.4203H413.987V47.4878H420.619L421.092 53.8515C422.25 51.4651 423.987 49.609 426.303 48.2832C428.619 46.9044 431.277 46.215 434.277 46.215Z" fill="#366B8B"/>
<path d="M508.5 22.9077L483.315 83.1249L458.13 22.9077H467.209L483.631 64.3517L499.499 22.9077H508.5Z" fill="#366B8B"/>
<path d="M500.721 63.6358C500.721 60.4009 501.484 57.4577 503.01 54.8061C504.589 52.1015 506.747 49.9802 509.484 48.4423C512.273 46.9044 515.405 46.1355 518.879 46.1355C522.352 46.1355 525.431 46.9044 528.116 48.4423C530.853 49.9802 532.958 52.075 534.432 54.7265C535.958 57.3781 536.721 60.3479 536.721 63.6358C536.721 66.9238 535.958 69.9201 534.432 72.6247C532.958 75.2762 530.853 77.371 528.116 78.9089C525.379 80.4468 522.247 81.2157 518.721 81.2157C515.3 81.2157 512.221 80.4998 509.484 79.068C506.747 77.5831 504.589 75.5149 503.01 72.8633C501.484 70.2117 500.721 67.1359 500.721 63.6358ZM508.142 63.7154C508.142 65.7836 508.589 67.6927 509.484 69.4428C510.431 71.1928 511.694 72.5716 513.273 73.5792C514.905 74.5868 516.695 75.0906 518.642 75.0906C521.695 75.0906 524.221 74.0035 526.221 71.8292C528.221 69.6549 529.221 66.9503 529.221 63.7154C529.221 60.4805 528.221 57.7759 526.221 55.6016C524.221 53.3742 521.695 52.2606 518.642 52.2606C516.642 52.2606 514.852 52.7909 513.273 53.8515C511.694 54.8591 510.431 56.2379 509.484 57.988C508.589 59.738 508.142 61.6471 508.142 63.7154Z" fill="#366B8B"/>
<path d="M548.399 18.7712V80.4203H541.057V18.7712H548.399Z" fill="#366B8B"/>
<path d="M586.759 47.4878L569.311 81.3748H568.917L550.759 47.4878H559.522L569.39 68.4882L578.548 47.4878H586.759Z" fill="#366B8B"/>
<path d="M603.684 74.852C606.42 74.852 609.078 73.8974 611.657 71.9883L615.052 77.477C613.315 78.6437 611.421 79.5718 609.368 80.2612C607.368 80.8976 605.42 81.2157 603.526 81.2157C599.894 81.2157 596.71 80.4733 593.973 78.9884C591.289 77.4505 589.21 75.3558 587.736 72.7042C586.262 70.0526 585.525 67.0564 585.525 63.7154C585.525 60.4805 586.315 57.5372 587.894 54.8856C589.525 52.181 591.736 50.0598 594.526 48.5219C597.315 46.9309 600.368 46.1355 603.684 46.1355C607.947 46.1355 611.499 47.4082 614.342 49.9537C617.236 52.4462 619.21 55.9463 620.263 60.4539L594.368 69.6019C595.315 71.2458 596.578 72.5451 598.157 73.4997C599.789 74.4012 601.631 74.852 603.684 74.852ZM603.131 52.0219C600.131 52.0219 597.657 53.0826 595.71 55.2038C593.762 57.3251 592.789 60.0297 592.789 63.3176C592.789 64.1131 592.815 64.723 592.868 65.1472L611.894 58.0675C611.105 56.2645 609.973 54.8061 608.499 53.6924C607.078 52.5788 605.289 52.0219 603.131 52.0219Z" fill="#366B8B"/>
<path d="M630.963 55.2834C631.805 53.4803 632.989 51.8894 634.515 50.5105C636.094 49.1317 637.752 48.0711 639.489 47.3287C641.226 46.5862 642.752 46.1885 644.068 46.1355L643.752 53.5333C641.384 53.4273 639.226 53.9046 637.279 54.9652C635.384 56.0258 633.884 57.5107 632.779 59.4198C631.726 61.2759 631.2 63.2646 631.2 65.3859V80.4203H623.857V47.4878H630.41L630.963 55.2834Z" fill="#366B8B"/>
<path d="M680.796 47.4878V80.4203H673.454V75.0111C672.296 76.549 670.612 77.9808 668.401 79.3066C666.19 80.5794 663.69 81.2157 660.901 81.2157C657.796 81.2157 654.98 80.5528 652.453 79.2271C649.98 77.8482 648.006 75.8596 646.532 73.261C645.111 70.6625 644.401 67.5601 644.401 63.954C644.401 60.3479 645.137 57.219 646.611 54.5674C648.138 51.8628 650.164 49.7946 652.69 48.3628C655.269 46.8779 658.111 46.1355 661.217 46.1355C664.006 46.1355 666.427 46.7453 668.48 47.965C670.533 49.1848 672.191 50.7757 673.454 52.7379L674.006 47.4878H680.796ZM662.875 75.0906C665.559 75.0906 667.848 74.3482 669.743 72.8633C671.69 71.3254 672.927 69.2572 673.454 66.6586V60.1357C672.822 57.8024 671.506 55.9198 669.506 54.4879C667.506 53.003 665.217 52.2606 662.638 52.2606C660.69 52.2606 658.875 52.7379 657.19 53.6924C655.559 54.647 654.243 55.9993 653.243 57.7493C652.295 59.4463 651.822 61.382 651.822 63.5563C651.822 65.6775 652.322 67.6132 653.322 69.3632C654.322 71.1133 655.664 72.5186 657.348 73.5792C659.032 74.5868 660.875 75.0906 662.875 75.0906Z" fill="#366B8B"/>
<path d="M697.289 81.1362C694.868 81.1362 692.552 80.7119 690.342 79.8634C688.184 79.0149 686.421 77.7687 685.052 76.1247L688.21 71.8292C689.526 73.1019 690.895 74.083 692.316 74.7724C693.789 75.4618 695.237 75.8065 696.658 75.8065C698.395 75.8065 699.816 75.4618 700.921 74.7724C702.026 74.083 702.579 73.0224 702.579 71.5905C702.579 70.4769 702.237 69.5753 701.553 68.8859C700.868 68.1965 700.079 67.6927 699.184 67.3745C698.342 67.0564 696.895 66.5791 694.842 65.9427C689.263 64.1396 686.473 60.9312 686.473 56.3175C686.473 53.5599 687.473 51.2 689.473 49.2378C691.526 47.2756 694.368 46.2945 698 46.2945C700.316 46.2945 702.368 46.5862 704.158 47.1696C705.947 47.7529 707.605 48.681 709.132 49.9537L706.21 54.4879C705.368 53.5864 704.289 52.8704 702.974 52.3401C701.71 51.8098 700.5 51.5181 699.342 51.4651C697.868 51.4651 696.605 51.8363 695.552 52.5788C694.5 53.2682 693.974 54.2227 693.974 55.4425C693.974 56.4501 694.316 57.2986 695 57.988C695.684 58.6244 696.395 59.1016 697.131 59.4198C697.868 59.685 699.316 60.1623 701.474 60.8517C704.158 61.7532 706.237 62.9199 707.711 64.3517C709.237 65.7836 710 67.7192 710 70.1587C710 73.3406 708.895 75.9656 706.684 78.0339C704.474 80.1021 701.342 81.1362 697.289 81.1362Z" fill="#366B8B"/>
<path d="M205.721 89.2861H207.669V116.853H205.721V89.2861Z" fill="#9E9E9E"/>
<path d="M226.493 101.672L226.692 106.447L226.453 105.516C226.904 104.196 227.752 103.16 228.998 102.409C230.271 101.633 231.676 101.245 233.213 101.245C234.671 101.245 235.851 101.672 236.752 102.526C237.654 103.354 238.118 104.441 238.144 105.787V116.853H236.236V106.292C236.209 105.309 235.891 104.493 235.281 103.846C234.671 103.199 233.783 102.862 232.617 102.837C231.583 102.837 230.615 103.082 229.714 103.574C228.813 104.066 228.084 104.752 227.527 105.632C226.997 106.512 226.732 107.535 226.732 108.699V116.853H224.863V101.672H226.493Z" fill="#9E9E9E"/>
<path d="M255.908 94.9936H257.816V101.866H262.628V103.341H257.816V116.853H255.908V103.341H252.607V101.866H255.908V94.9936Z" fill="#9E9E9E"/>
<path d="M283.194 117.164C281.577 117.164 280.145 116.814 278.899 116.115C277.653 115.416 276.673 114.472 275.957 113.281C275.268 112.064 274.923 110.705 274.923 109.204C274.923 107.729 275.294 106.383 276.036 105.166C276.779 103.95 277.773 102.979 279.019 102.254C280.291 101.529 281.696 101.167 283.234 101.167C285.089 101.167 286.64 101.698 287.886 102.759C289.159 103.82 290.073 105.205 290.63 106.913L277.03 112.039L276.474 110.718L288.92 105.982L288.522 106.525C288.072 105.49 287.382 104.597 286.455 103.846C285.553 103.095 284.44 102.72 283.114 102.72C281.922 102.72 280.848 103.005 279.894 103.574C278.939 104.144 278.17 104.907 277.587 105.865C277.03 106.823 276.752 107.91 276.752 109.127C276.752 110.265 277.017 111.327 277.547 112.31C278.104 113.294 278.873 114.083 279.854 114.679C280.835 115.274 281.961 115.572 283.234 115.572C284.082 115.572 284.891 115.416 285.659 115.106C286.455 114.795 287.157 114.394 287.767 113.902L288.721 115.222C287.979 115.792 287.117 116.258 286.137 116.62C285.182 116.982 284.201 117.164 283.194 117.164Z" fill="#9E9E9E"/>
<path d="M306.588 101.672L306.786 106.331L306.548 105.749C306.892 104.817 307.436 104.014 308.178 103.341C308.92 102.668 309.742 102.151 310.644 101.788C311.571 101.426 312.459 101.245 313.308 101.245L313.228 103.031C312.035 103.031 310.948 103.29 309.968 103.807C309.013 104.325 308.244 105.024 307.661 105.904C307.105 106.758 306.826 107.729 306.826 108.816V116.853H304.957V101.672H306.588Z" fill="#9E9E9E"/>
<path d="M333.942 117.164C332.458 117.164 331.106 116.84 329.886 116.193C328.693 115.52 327.739 114.588 327.023 113.397C326.334 112.207 325.989 110.822 325.989 109.243C325.989 107.561 326.36 106.124 327.103 104.933C327.845 103.717 328.852 102.798 330.125 102.177C331.397 101.529 332.842 101.206 334.459 101.206C335.838 101.206 337.137 101.607 338.356 102.409C339.602 103.212 340.49 104.221 341.02 105.438L340.742 105.982L340.98 101.672H342.651V116.853H340.782V112.155L341.179 112.854C340.994 113.372 340.676 113.889 340.225 114.407C339.774 114.899 339.218 115.365 338.555 115.805C337.919 116.219 337.203 116.555 336.408 116.814C335.639 117.047 334.817 117.164 333.942 117.164ZM334.34 115.611C335.506 115.611 336.553 115.378 337.481 114.912C338.436 114.42 339.204 113.747 339.788 112.893C340.371 112.039 340.702 111.055 340.782 109.942V107.768C340.57 106.81 340.145 105.956 339.509 105.205C338.899 104.454 338.144 103.859 337.243 103.419C336.341 102.979 335.36 102.759 334.3 102.759C333.134 102.759 332.06 103.031 331.079 103.574C330.098 104.092 329.316 104.83 328.733 105.787C328.15 106.745 327.858 107.871 327.858 109.165C327.858 110.356 328.15 111.443 328.733 112.427C329.316 113.385 330.098 114.161 331.079 114.756C332.086 115.326 333.173 115.611 334.34 115.611Z" fill="#9E9E9E"/>
<path d="M370.867 115.378C370.151 115.947 369.343 116.387 368.442 116.698C367.54 117.008 366.599 117.164 365.618 117.164C364.028 117.164 362.609 116.827 361.363 116.154C360.118 115.455 359.137 114.51 358.421 113.32C357.705 112.129 357.347 110.77 357.347 109.243C357.347 107.716 357.718 106.357 358.461 105.166C359.203 103.976 360.184 103.044 361.403 102.371C362.649 101.672 364.001 101.322 365.459 101.322C366.546 101.322 367.553 101.478 368.481 101.788C369.409 102.099 370.218 102.539 370.907 103.108L369.913 104.351C369.356 103.911 368.707 103.548 367.964 103.264C367.222 102.979 366.427 102.837 365.579 102.837C364.412 102.837 363.338 103.121 362.358 103.691C361.403 104.26 360.634 105.037 360.051 106.02C359.495 106.978 359.216 108.052 359.216 109.243C359.216 110.408 359.495 111.482 360.051 112.466C360.634 113.423 361.416 114.187 362.397 114.756C363.405 115.326 364.518 115.611 365.738 115.611C366.533 115.611 367.275 115.494 367.964 115.261C368.654 115.002 369.277 114.666 369.833 114.252L370.867 115.378Z" fill="#9E9E9E"/>
<path d="M386.758 94.9936H388.666V101.866H393.478V103.341H388.666V116.853H386.758V103.341H383.457V101.866H386.758V94.9936Z" fill="#9E9E9E"/>
<path d="M407.284 101.672H409.153V116.853H407.284V101.672ZM406.886 96.0807C406.886 95.7184 407.032 95.4207 407.324 95.1877C407.615 94.9289 407.933 94.7995 408.278 94.7995C408.649 94.7995 408.967 94.9289 409.232 95.1877C409.498 95.4207 409.63 95.7184 409.63 96.0807C409.63 96.469 409.498 96.7926 409.232 97.0514C408.967 97.2844 408.649 97.4008 408.278 97.4008C407.933 97.4008 407.615 97.2714 407.324 97.0126C407.032 96.7537 406.886 96.4431 406.886 96.0807Z" fill="#9E9E9E"/>
<path d="M423.85 109.165C423.85 107.69 424.208 106.344 424.924 105.127C425.666 103.911 426.66 102.953 427.906 102.254C429.179 101.529 430.597 101.167 432.161 101.167C433.752 101.167 435.17 101.529 436.416 102.254C437.662 102.953 438.643 103.911 439.358 105.127C440.074 106.344 440.432 107.69 440.432 109.165C440.432 110.641 440.074 111.987 439.358 113.203C438.643 114.42 437.649 115.391 436.376 116.115C435.13 116.814 433.725 117.164 432.161 117.164C430.57 117.164 429.152 116.827 427.906 116.154C426.66 115.455 425.666 114.51 424.924 113.32C424.208 112.103 423.85 110.718 423.85 109.165ZM425.719 109.204C425.719 110.395 425.998 111.482 426.554 112.466C427.137 113.423 427.906 114.187 428.861 114.756C429.841 115.326 430.928 115.611 432.121 115.611C433.314 115.611 434.388 115.326 435.342 114.756C436.323 114.187 437.092 113.423 437.649 112.466C438.232 111.482 438.523 110.395 438.523 109.204C438.523 108.013 438.232 106.939 437.649 105.982C437.092 104.998 436.323 104.221 435.342 103.652C434.388 103.057 433.314 102.759 432.121 102.759C430.902 102.759 429.802 103.07 428.821 103.691C427.866 104.286 427.111 105.076 426.554 106.059C425.998 107.043 425.719 108.091 425.719 109.204Z" fill="#9E9E9E"/>
<path d="M456.758 101.672L456.956 106.447L456.718 105.516C457.168 104.196 458.017 103.16 459.263 102.409C460.535 101.633 461.94 101.245 463.478 101.245C464.936 101.245 466.115 101.672 467.017 102.526C467.918 103.354 468.382 104.441 468.409 105.787V116.853H466.5V106.292C466.473 105.309 466.155 104.493 465.546 103.846C464.936 103.199 464.048 102.862 462.881 102.837C461.847 102.837 460.88 103.082 459.978 103.574C459.077 104.066 458.348 104.752 457.791 105.632C457.261 106.512 456.996 107.535 456.996 108.699V116.853H455.127V101.672H456.758Z" fill="#9E9E9E"/>
<path d="M512.323 117.164C510.865 117.164 509.539 116.827 508.346 116.154C507.153 115.455 506.199 114.498 505.483 113.281C504.794 112.064 504.449 110.693 504.449 109.165C504.449 107.535 504.807 106.124 505.523 104.933C506.239 103.743 507.206 102.824 508.426 102.177C509.672 101.529 511.037 101.206 512.522 101.206C514.006 101.206 515.411 101.581 516.737 102.332C518.089 103.082 519.07 104.066 519.679 105.283L519.361 106.137V87.3447H521.23V116.853H519.321V112.194L519.719 113.048C519.056 114.265 518.062 115.261 516.737 116.038C515.411 116.788 513.94 117.164 512.323 117.164ZM512.8 115.572C513.993 115.572 515.067 115.326 516.021 114.834C516.975 114.316 517.744 113.63 518.327 112.776C518.91 111.896 519.242 110.913 519.321 109.825V107.884C519.136 106.9 518.725 106.02 518.089 105.244C517.452 104.467 516.684 103.859 515.782 103.419C514.881 102.953 513.887 102.72 512.8 102.72C511.607 102.72 510.52 102.992 509.539 103.535C508.558 104.079 507.776 104.83 507.193 105.787C506.61 106.745 506.318 107.858 506.318 109.127C506.318 110.317 506.61 111.404 507.193 112.388C507.776 113.346 508.558 114.122 509.539 114.718C510.547 115.287 511.634 115.572 512.8 115.572Z" fill="#9E9E9E"/>
<path d="M544.195 117.164C542.578 117.164 541.146 116.814 539.9 116.115C538.654 115.416 537.674 114.472 536.958 113.281C536.269 112.064 535.924 110.705 535.924 109.204C535.924 107.729 536.295 106.383 537.037 105.166C537.78 103.95 538.774 102.979 540.02 102.254C541.292 101.529 542.697 101.167 544.235 101.167C546.09 101.167 547.641 101.698 548.887 102.759C550.16 103.82 551.074 105.205 551.631 106.913L538.031 112.039L537.475 110.718L549.921 105.982L549.523 106.525C549.073 105.49 548.383 104.597 547.456 103.846C546.554 103.095 545.441 102.72 544.115 102.72C542.923 102.72 541.849 103.005 540.895 103.574C539.94 104.144 539.171 104.907 538.588 105.865C538.031 106.823 537.753 107.91 537.753 109.127C537.753 110.265 538.018 111.327 538.548 112.31C539.105 113.294 539.874 114.083 540.855 114.679C541.836 115.274 542.962 115.572 544.235 115.572C545.083 115.572 545.892 115.416 546.66 115.106C547.456 114.795 548.158 114.394 548.768 113.902L549.722 115.222C548.98 115.792 548.118 116.258 547.138 116.62C546.183 116.982 545.202 117.164 544.195 117.164Z" fill="#9E9E9E"/>
<path d="M569.617 117.164C568.715 117.164 567.774 117.008 566.793 116.698C565.812 116.361 565.017 115.831 564.407 115.106L565.282 113.902C565.812 114.446 566.435 114.886 567.151 115.222C567.893 115.533 568.676 115.688 569.497 115.688C570.107 115.688 570.677 115.611 571.207 115.455C571.764 115.274 572.215 114.976 572.559 114.562C572.904 114.148 573.076 113.592 573.076 112.893C573.076 112.168 572.864 111.611 572.44 111.223C572.042 110.835 571.525 110.524 570.889 110.291C570.279 110.032 569.63 109.8 568.941 109.592C567.801 109.23 566.86 108.738 566.117 108.117C565.402 107.496 565.044 106.616 565.044 105.477C565.044 104.649 565.242 103.924 565.64 103.303C566.064 102.681 566.634 102.202 567.35 101.866C568.066 101.504 568.874 101.322 569.776 101.322C570.597 101.322 571.406 101.452 572.201 101.711C573.023 101.969 573.765 102.409 574.428 103.031L573.593 104.312C573.169 103.743 572.599 103.354 571.883 103.147C571.194 102.94 570.584 102.824 570.054 102.798C569.603 102.798 569.126 102.888 568.622 103.07C568.145 103.251 567.734 103.523 567.39 103.885C567.072 104.221 566.913 104.674 566.913 105.244C566.913 105.839 567.085 106.331 567.43 106.719C567.774 107.082 568.212 107.379 568.742 107.612C569.298 107.845 569.868 108.065 570.452 108.272C571.22 108.505 571.936 108.79 572.599 109.127C573.288 109.437 573.845 109.864 574.269 110.408C574.72 110.925 574.945 111.624 574.945 112.504C574.945 113.385 574.746 114.187 574.349 114.912C573.951 115.611 573.354 116.167 572.559 116.581C571.79 116.97 570.81 117.164 569.617 117.164Z" fill="#9E9E9E"/>
<path d="M589.744 101.672H591.613V116.853H589.744V101.672ZM589.346 96.0807C589.346 95.7184 589.492 95.4207 589.784 95.1877C590.075 94.9289 590.393 94.7995 590.738 94.7995C591.109 94.7995 591.427 94.9289 591.692 95.1877C591.957 95.4207 592.09 95.7184 592.09 96.0807C592.09 96.469 591.957 96.7926 591.692 97.0514C591.427 97.2844 591.109 97.4008 590.738 97.4008C590.393 97.4008 590.075 97.2714 589.784 97.0126C589.492 96.7537 589.346 96.4431 589.346 96.0807Z" fill="#9E9E9E"/>
<path d="M614.74 124.269C613.865 124.269 613.03 124.165 612.235 123.958C611.44 123.777 610.658 123.454 609.889 122.988C609.12 122.522 608.325 121.913 607.503 121.163L608.617 119.92C609.756 120.982 610.817 121.693 611.798 122.056C612.779 122.444 613.733 122.638 614.661 122.638C616.278 122.638 617.564 122.379 618.518 121.862C619.472 121.37 620.161 120.697 620.586 119.843C621.01 119.014 621.235 118.083 621.262 117.047L621.301 112.116L621.739 112.582C621.209 113.928 620.254 115.028 618.876 115.882C617.524 116.737 615.986 117.164 614.263 117.164C612.805 117.164 611.466 116.814 610.247 116.115C609.054 115.391 608.1 114.433 607.384 113.242C606.668 112.026 606.31 110.68 606.31 109.204C606.31 107.625 606.681 106.24 607.424 105.05C608.166 103.859 609.173 102.927 610.446 102.254C611.718 101.555 613.123 101.206 614.661 101.206C616.092 101.206 617.444 101.568 618.717 102.293C620.016 103.018 620.957 103.976 621.54 105.166L621.301 106.02L621.5 101.672H623.17V117.086C623.17 118.328 622.879 119.493 622.296 120.58C621.739 121.693 620.837 122.586 619.592 123.259C618.372 123.932 616.755 124.269 614.74 124.269ZM608.179 109.165C608.179 110.356 608.471 111.443 609.054 112.427C609.637 113.385 610.419 114.161 611.4 114.756C612.407 115.326 613.521 115.611 614.74 115.611C615.907 115.611 616.967 115.365 617.921 114.873C618.876 114.355 619.658 113.669 620.268 112.815C620.877 111.961 621.222 111.042 621.301 110.058V107.806C621.089 106.823 620.665 105.956 620.029 105.205C619.419 104.454 618.65 103.859 617.723 103.419C616.821 102.979 615.827 102.759 614.74 102.759C613.521 102.759 612.407 103.031 611.4 103.574C610.419 104.118 609.637 104.869 609.054 105.826C608.471 106.784 608.179 107.897 608.179 109.165Z" fill="#9E9E9E"/>
<path d="M641.043 101.672L641.241 106.447L641.003 105.516C641.453 104.196 642.302 103.16 643.548 102.409C644.82 101.633 646.225 101.245 647.763 101.245C649.221 101.245 650.401 101.672 651.302 102.526C652.203 103.354 652.667 104.441 652.694 105.787V116.853H650.785V106.292C650.758 105.309 650.44 104.493 649.831 103.846C649.221 103.199 648.333 102.862 647.166 102.837C646.132 102.837 645.165 103.082 644.263 103.574C643.362 104.066 642.633 104.752 642.076 105.632C641.546 106.512 641.281 107.535 641.281 108.699V116.853H639.412V101.672H641.043Z" fill="#9E9E9E"/>
<path d="M675.666 117.164C674.049 117.164 672.618 116.814 671.372 116.115C670.126 115.416 669.145 114.472 668.429 113.281C667.74 112.064 667.395 110.705 667.395 109.204C667.395 107.729 667.766 106.383 668.509 105.166C669.251 103.95 670.245 102.979 671.491 102.254C672.763 101.529 674.168 101.167 675.706 101.167C677.562 101.167 679.113 101.698 680.358 102.759C681.631 103.82 682.546 105.205 683.102 106.913L669.503 112.039L668.946 110.718L681.392 105.982L680.995 106.525C680.544 105.49 679.855 104.597 678.927 103.846C678.026 103.095 676.912 102.72 675.587 102.72C674.394 102.72 673.32 103.005 672.366 103.574C671.411 104.144 670.643 104.907 670.059 105.865C669.503 106.823 669.224 107.91 669.224 109.127C669.224 110.265 669.49 111.327 670.02 112.31C670.576 113.294 671.345 114.083 672.326 114.679C673.307 115.274 674.434 115.572 675.706 115.572C676.554 115.572 677.363 115.416 678.132 115.106C678.927 114.795 679.629 114.394 680.239 113.902L681.194 115.222C680.451 115.792 679.59 116.258 678.609 116.62C677.655 116.982 676.674 117.164 675.666 117.164Z" fill="#9E9E9E"/>
<path d="M699.06 101.672L699.259 106.331L699.02 105.749C699.365 104.817 699.908 104.014 700.65 103.341C701.393 102.668 702.215 102.151 703.116 101.788C704.044 101.426 704.932 101.245 705.78 101.245L705.701 103.031C704.508 103.031 703.421 103.29 702.44 103.807C701.486 104.325 700.717 105.024 700.134 105.904C699.577 106.758 699.298 107.729 699.298 108.816V116.853H697.43V101.672H699.06Z" fill="#9E9E9E"/>
<path d="M116.245 65.3747C116.245 69.8906 119.906 73.5515 124.422 73.5515C128.938 73.5515 132.599 69.8906 132.599 65.3747C132.599 60.8588 128.938 57.198 124.422 57.198C119.906 57.198 116.245 60.8588 116.245 65.3747Z" fill="#8582D9"/>
<path d="M58.4717 72.4895L72.0238 72.4895L72.0238 58.9373L58.4717 58.9373L58.4717 72.4895Z" fill="#62C4F6"/>
<path fill-rule="evenodd" clip-rule="evenodd" d="M124.353 0L189.833 65.4802L127.657 127.657L121.049 121.049L176.617 65.4802L124.353 13.2156L88.4083 49.16L81.8005 42.5522L124.353 0Z" fill="#8582D9"/>
<path fill-rule="evenodd" clip-rule="evenodd" d="M13.2156 65.4766L68.7842 9.90809L62.1764 3.30029L0 65.4766L65.4803 130.957L108.381 88.4047L101.425 81.7969L65.4803 117.741L13.2156 65.4766Z" fill="#62C4F6"/>
</svg>
