<svg width="512" height="512" viewBox="0 0 512 512" fill="none" xmlns="http://www.w3.org/2000/svg">
<path d="M298.585 256.003L503.168 51.4204C514.944 39.6447 514.944 20.6113 503.168 8.83565C491.393 -2.94001 472.359 -2.94001 460.583 8.83565L256 213.419L51.4165 8.83565C39.6408 -2.94001 20.6074 -2.94001 8.83174 8.83565C-2.94391 20.6113 -2.94391 39.6447 8.83174 51.4204L213.415 256.003L8.83174 460.586C-2.94391 472.362 -2.94391 491.396 8.83174 503.171C14.7046 509.044 22.4143 511.995 30.1241 511.995C37.8339 511.995 45.5437 509.043 51.4165 503.171L255.999 298.588L460.583 503.171C466.455 509.044 474.165 511.995 481.875 511.995C489.585 511.995 497.294 509.043 503.167 503.171C514.943 491.396 514.943 472.362 503.167 460.586L298.585 256.003Z" fill="white"/>
</svg>
