<svg width="169" height="169" viewBox="0 0 169 169" fill="none" xmlns="http://www.w3.org/2000/svg">
<path d="M102.676 84.494C102.676 88.3273 105.783 91.4349 109.617 91.4349C113.45 91.4349 116.557 88.3273 116.557 84.494C116.557 80.6606 113.45 77.5531 109.617 77.5531C105.783 77.5531 102.676 80.6606 102.676 84.494Z" fill="#8582D9"/>
<path d="M53.634 90.5333L65.1379 90.5333L65.1379 79.0294L53.634 79.0294L53.634 90.5333Z" fill="#62C4F6"/>
<path fill-rule="evenodd" clip-rule="evenodd" d="M109.558 29L165.141 84.5834L112.362 137.362L106.753 131.753L153.923 84.5834L109.558 40.2181L79.046 70.7298L73.4369 65.1207L109.558 29Z" fill="#8582D9"/>
<path fill-rule="evenodd" clip-rule="evenodd" d="M15.2182 84.5803L62.3879 37.4105L56.7789 31.8015L4 84.5803L59.5834 140.164L96 104.043L90.0951 98.4339L59.5834 128.946L15.2182 84.5803Z" fill="#62C4F6"/>
</svg>
