<svg width="144" height="144" viewBox="0 0 144 144" fill="none" xmlns="http://www.w3.org/2000/svg">
<path fill-rule="evenodd" clip-rule="evenodd" d="M72 123.625C100.512 123.625 123.625 100.512 123.625 72C123.625 43.4883 100.512 20.375 72 20.375C43.4883 20.375 20.375 43.4883 20.375 72C20.375 100.512 43.4883 123.625 72 123.625ZM72 131C104.585 131 131 104.585 131 72C131 39.4152 104.585 13 72 13C39.4152 13 13 39.4152 13 72C13 104.585 39.4152 131 72 131Z" fill="#9E9E9E"/>
<path d="M91.8025 62.4796C94.289 60.6711 96.1418 58.1162 97.0948 55.182C98.0477 52.2478 98.0518 49.0852 97.1064 46.1485C96.161 43.2119 94.3147 40.6522 91.8329 38.8372C89.351 37.0222 86.3612 36.0454 83.293 36.0469H59.7852C56.7169 36.0454 53.7271 37.0222 51.2453 38.8372C48.7634 40.6522 46.9171 43.2119 45.9717 46.1485C45.0263 49.0852 45.0304 52.2478 45.9833 55.182C46.9363 58.1162 48.7891 60.6711 51.2756 62.4796C49.415 63.8314 47.9001 65.6083 46.8552 67.6641C45.8104 69.7199 45.2656 71.9959 45.2656 74.3048C45.2656 76.6137 45.8105 78.8897 46.8553 80.9455C47.9002 83.0012 49.4152 84.7781 51.2758 86.1299C49.2632 87.596 47.6583 89.5573 46.6149 91.8261C45.5715 94.0949 45.1244 96.5952 45.3165 99.0876C45.5086 101.58 46.3335 103.981 47.712 106.061C49.0906 108.141 50.9768 109.83 53.19 110.966C55.4032 112.103 57.8693 112.649 60.3522 112.551C62.8351 112.454 65.2517 111.718 67.3706 110.412C69.4896 109.106 71.2399 107.275 72.4539 105.094C73.668 102.913 74.3053 100.455 74.3047 97.955V85.764C75.8202 86.9691 77.5597 87.8576 79.4211 88.3775C81.2824 88.8973 83.2282 89.0379 85.1444 88.7912C87.0605 88.5444 88.9083 87.9152 90.5796 86.9405C92.2508 85.9658 93.7118 84.6652 94.8768 83.1149C96.0418 81.5646 96.8874 79.7959 97.364 77.9125C97.8405 76.0291 97.9385 74.069 97.6522 72.1469C97.3659 70.2249 96.701 68.3798 95.6965 66.7197C94.692 65.0597 93.3681 63.6181 91.8025 62.4796V62.4796ZM92.2812 50.6545C92.2785 53.0508 91.3316 55.3483 89.648 57.0433C87.9644 58.7384 85.6815 59.6927 83.2997 59.6972L83.293 59.697L83.2796 59.6974L74.3047 59.697V41.6117H83.293C85.676 41.6144 87.9606 42.568 89.6457 44.2633C91.3307 45.9586 92.2785 48.2571 92.2812 50.6545V50.6545ZM50.7969 50.6545C50.7996 48.2571 51.7474 45.9586 53.4325 44.2633C55.1175 42.568 57.4021 41.6144 59.7852 41.6117H68.7734V59.697H59.7852L59.7786 59.6972C57.3967 59.6927 55.1138 58.7384 53.4302 57.0434C51.7466 55.3483 50.7996 53.0508 50.7969 50.6545V50.6545ZM50.7969 74.3047C50.7996 71.9084 51.7465 69.6109 53.4302 67.9158C55.1138 66.2208 57.3967 65.2665 59.7786 65.262L59.7852 65.2622L68.7734 65.2619V83.3472L59.7852 83.3475C57.4021 83.3448 55.1175 82.3912 53.4325 80.6959C51.7474 79.0007 50.7996 76.7022 50.7969 74.3047V74.3047ZM59.7852 106.998C58.6042 106.999 57.4345 106.766 56.3431 106.312C55.2517 105.858 54.26 105.192 53.4245 104.352C52.589 103.512 51.9263 102.515 51.4741 101.417C51.0219 100.32 50.7892 99.1432 50.7892 97.955C50.7892 96.7668 51.0219 95.5903 51.4741 94.4927C51.9263 93.3951 52.589 92.3979 53.4245 91.5581C54.26 90.7183 55.2517 90.0524 56.3431 89.5984C57.4345 89.1444 58.6042 88.9113 59.7852 88.9123L68.7734 88.9121V97.955C68.7707 100.352 67.8228 102.651 66.1378 104.346C64.4528 106.041 62.1681 106.995 59.7852 106.998V106.998ZM83.293 83.3475C80.9107 83.3469 78.6261 82.3949 76.9412 80.7006C75.2563 79.0062 74.3089 76.7083 74.3071 74.3116C74.3054 71.9149 75.2494 69.6155 76.9318 67.9186C78.6142 66.2218 80.8974 65.2664 83.2796 65.2622H83.293L83.2995 65.262C85.6818 65.2653 87.9653 66.2199 89.6483 67.9161C91.3313 69.6123 92.2762 71.9114 92.2754 74.3081C92.2745 76.7048 91.3279 79.0031 89.6437 80.6981C87.9594 82.393 85.6752 83.346 83.293 83.3475V83.3475Z" fill="#9E9E9E"/>
</svg>
