<svg width="190" height="190" viewBox="0 0 190 190" fill="none" xmlns="http://www.w3.org/2000/svg">
<path d="M188.923 72.7557L153.849 42.3312C153.028 41.6196 151.868 41.4527 150.88 41.9029C149.892 42.3542 149.258 43.34 149.258 44.4262V60.2674L135.23 60.2719L135.166 60.2704C125.649 60.0597 116.483 62.3313 108.41 66.7886V40.1591H125.773C126.865 40.1591 127.856 39.5175 128.303 38.5203C128.751 37.5231 128.571 36.3563 127.843 35.5405L97.0132 0.929C96.4869 0.337852 95.7334 0 94.9416 0C94.1498 0 93.3969 0.337852 92.87 0.929L62.0398 35.5412C61.3129 36.3571 61.133 37.5238 61.5799 38.521C62.0272 39.5183 63.0181 40.1599 64.1106 40.1599H81.4735V67.5522C81.4735 69.0842 82.7155 70.3258 84.2471 70.3258C85.7788 70.3258 87.0208 69.0838 87.0208 67.5522V37.3862C87.0208 35.8542 85.7788 34.6126 84.2471 34.6126H70.2954L94.9405 6.94432L119.585 34.6126H105.635C104.103 34.6126 102.861 35.8546 102.861 37.3862V70.3258C100.914 71.7462 99.0496 73.3061 97.2865 75.0065C93.0398 79.1015 89.5983 83.7353 87.0219 88.7779V63.4672C87.0219 61.9352 85.7799 60.6935 84.2483 60.6935C82.7162 60.6935 81.4746 61.9356 81.4746 63.4672V102.407C73.4044 97.947 64.2427 95.674 54.7216 95.888L54.6545 95.8895L40.6208 95.885V80.0438C40.6208 78.9576 39.9871 77.9711 38.9987 77.5205C38.01 77.0695 36.85 77.2368 36.0296 77.9488L0.956444 108.373C0.348607 108.9 0 109.664 0 110.468C0 111.272 0.348607 112.036 0.956444 112.563L21.9736 130.699C23.131 131.703 24.8826 131.578 25.8865 130.421C26.8901 129.264 26.7658 127.512 25.6087 126.508L7.007 110.467L35.0743 86.1207V98.6568C35.0743 100.188 36.3156 101.43 37.8472 101.43L54.6868 101.436C54.7046 101.436 54.722 101.436 54.7398 101.436L54.8351 101.433C67.5923 101.155 79.6351 105.834 88.7416 114.616C97.7494 123.303 102.75 134.897 102.857 147.303V165.583C102.857 167.115 104.099 168.356 105.631 168.356H105.633H105.636C107.168 168.356 108.41 167.114 108.41 165.583V147.708C108.41 147.573 108.406 147.438 108.404 147.303V112.092C108.404 105.262 111.133 98.8708 116.086 94.0938C121.037 89.319 127.577 86.7645 134.517 86.9158C134.536 86.9162 134.556 86.9192 134.576 86.9162L149.258 86.9106V105.275C149.258 106.361 149.892 107.347 150.88 107.798C151.868 108.249 153.028 108.081 153.849 107.37L188.923 76.9453C189.53 76.4187 189.879 75.654 189.879 74.8503C189.879 74.0467 189.531 73.2823 188.923 72.7557ZM154.806 99.1975V84.1366C154.806 83.4008 154.513 82.6954 153.993 82.1751C153.473 81.6552 152.767 81.363 152.032 81.363L134.603 81.3696C126.202 81.2079 118.25 84.3009 112.235 90.1015C106.187 95.9332 102.857 103.743 102.857 112.092V124.441C100.275 119.376 96.8307 114.711 92.5922 110.624C90.9408 109.031 89.2022 107.561 87.3894 106.214C88.7071 95.8079 93.4437 86.4196 101.138 78.9995C110.245 70.2176 122.283 65.5277 135.074 65.8177C135.079 65.8177 135.119 65.8188 135.123 65.8188C135.146 65.8195 135.172 65.8218 135.193 65.8199L152.033 65.8144C153.565 65.814 154.806 64.572 154.806 63.0407V50.5046L182.873 74.8511L154.806 99.1975Z" fill="#62C4F6"/>
<path d="M105.636 162.2C104.104 162.2 102.862 163.442 102.862 164.973V183.758H87.0224V147.709C87.0224 139.359 83.692 131.55 77.6445 125.718C71.6295 119.918 63.6776 116.815 55.2761 116.986L37.8484 116.979C37.848 116.979 37.8477 116.979 37.8473 116.979C37.1123 116.979 36.4065 117.272 35.8866 117.792C35.3663 118.312 35.0736 119.017 35.0736 119.753V134.814L23.7773 125.016C22.6202 124.012 20.8679 124.137 19.8644 125.293C18.8608 126.45 18.9851 128.202 20.1422 129.206L36.0294 142.988C36.8497 143.699 38.0101 143.867 38.9984 143.416C39.9868 142.965 40.6206 141.979 40.6206 140.893V122.529L55.3021 122.534C55.3244 122.537 55.3418 122.534 55.3615 122.534C62.2969 122.389 68.8414 124.937 73.7927 129.712C78.7459 134.488 81.4739 140.88 81.4739 147.709V186.532C81.4739 188.064 82.7159 189.306 84.2476 189.306H105.635C107.167 189.306 108.408 188.064 108.408 186.532V164.973C108.409 163.441 107.168 162.2 105.636 162.2Z" fill="#62C4F6"/>
</svg>
