<svg width="66" height="66" viewBox="0 0 66 66" fill="none" xmlns="http://www.w3.org/2000/svg">
<path fill-rule="evenodd" clip-rule="evenodd" d="M32.9652 0C14.7519 0 0 15.1251 0 33.799C0 48.7551 9.43629 61.3875 22.54 65.8659C24.1882 66.1616 24.8063 65.1476 24.8063 64.2604C24.8063 63.4577 24.7651 60.796 24.7651 57.9653C16.4826 59.5285 14.3399 55.8952 13.6806 53.994C13.3097 53.0222 11.7027 50.0226 10.3016 49.2198C9.14785 48.5861 7.49959 47.0229 10.2604 46.9807C12.8564 46.9384 14.7107 49.4311 15.3288 50.4451C18.2957 55.5572 23.0344 54.1207 24.9299 53.2335C25.2184 51.0365 26.0837 49.5578 27.0315 48.7129C19.6967 47.8679 12.0323 44.9527 12.0323 32.0246C12.0323 28.3489 13.3097 25.307 15.4112 22.9411C15.0816 22.0961 13.9278 18.6317 15.7409 13.9844C15.7409 13.9844 18.5017 13.0971 24.8063 17.4488C27.4435 16.6883 30.2456 16.308 33.0476 16.308C35.8497 16.308 38.6517 16.6883 41.2889 17.4488C47.5935 13.0549 50.3544 13.9844 50.3544 13.9844C52.1675 18.6317 51.0137 22.0961 50.684 22.9411C52.7856 25.307 54.063 28.3067 54.063 32.0246C54.063 44.995 46.3573 47.8679 39.0226 48.7129C40.2176 49.7691 41.2477 51.797 41.2477 54.9657C41.2477 59.4863 41.2065 63.1197 41.2065 64.2604C41.2065 65.1476 41.8246 66.2039 43.4729 65.8659C50.0171 63.6007 55.7037 59.2885 59.7323 53.5361C63.7609 47.7837 65.9287 40.8808 65.9304 33.799C65.9304 15.1251 51.1785 0 32.9652 0Z" fill="#366B8B"/>
</svg>
