<svg width="33" height="25" viewBox="0 0 33 25" fill="none" xmlns="http://www.w3.org/2000/svg">
<path d="M33 4.12329V3.59658C33 1.61339 31.4049 0 29.4444 0H3.55565C1.59503 0 0 1.61339 0 3.59658V4.12329V4.12714V21.4036C0 23.3867 1.59503 25 3.55565 25H29.4445C31.405 25 33 23.3867 33 21.4036V4.12714C33 4.1259 33 4.12459 33 4.12329ZM3.55565 1.95587H29.4444C30.3387 1.95587 31.0664 2.69186 31.0664 3.59658V3.59703L18.1179 12.3287C17.256 12.9099 15.7441 12.9098 14.8823 12.3287L1.93361 3.59697V3.59651C1.93361 2.69186 2.66123 1.95587 3.55565 1.95587ZM29.4445 23.0441H3.55565C2.66123 23.0441 1.93361 22.3082 1.93361 21.4036V5.94759L13.8098 13.9561C14.5641 14.4648 15.5319 14.7191 16.5001 14.7191C17.468 14.7191 18.4362 14.4647 19.1905 13.9561L31.0665 5.94759V21.4036C31.0664 22.3082 30.3388 23.0441 29.4445 23.0441Z" fill="#9E9E9E"/>
</svg>
