<svg width="66" height="66" viewBox="0 0 66 66" fill="none" xmlns="http://www.w3.org/2000/svg">
<path d="M33.0348 0C14.8314 0 0.0695801 14.7618 0.0695801 32.9652C0.0695801 51.1686 14.8314 65.9304 33.0348 65.9304C51.2382 65.9304 66 51.1686 66 32.9652C66 14.7618 51.2382 0 33.0348 0ZM23.4555 49.8341H15.427V25.6801H23.4555V49.8341ZM19.4415 22.3819H19.3892C16.695 22.3819 14.9526 20.5273 14.9526 18.2094C14.9526 15.8393 16.7484 14.036 19.4948 14.036C22.2412 14.036 23.9313 15.8393 23.9836 18.2094C23.9836 20.5273 22.2412 22.3819 19.4415 22.3819ZM52.4047 49.8341H44.3772V36.9123C44.3772 33.6649 43.2147 31.4502 40.3098 31.4502C38.0921 31.4502 36.7712 32.9441 36.1907 34.3862C35.9784 34.9023 35.9266 35.6236 35.9266 36.3454V49.8341H27.8986C27.8986 49.8341 28.0037 27.9462 27.8986 25.6801H35.9266V29.1001C36.9935 27.4542 38.9024 25.1132 43.1619 25.1132C48.444 25.1132 52.4047 28.5654 52.4047 35.9843V49.8341Z" fill="#366B8B"/>
</svg>
