<svg width="148" height="159" viewBox="0 0 148 159" fill="none" xmlns="http://www.w3.org/2000/svg">
<path fill-rule="evenodd" clip-rule="evenodd" d="M29.6231 56.5632C29.1288 53.2866 29.3722 49.9336 30.3443 46.7514C31.4735 43.0545 33.5471 39.716 36.3603 37.065C39.1736 34.4141 42.6295 32.5425 46.3869 31.6347C50.1443 30.727 54.0734 30.8145 57.7866 31.8888C61.4999 32.963 64.8689 34.9867 67.5613 37.7603C70.2537 40.5339 72.1765 43.9616 73.1399 47.7051C74.1034 51.4486 74.0742 55.3786 73.0552 59.1073C72.0363 62.8361 70.0628 66.2348 67.3295 68.9681L73.6193 75.2579C75.5843 73.293 77.2688 71.0823 78.6359 68.6897C79.9313 66.4226 80.9417 63.992 81.6358 61.4521C83.0624 56.2315 83.1032 50.7292 81.7543 45.488C80.4054 40.2468 77.7134 35.4479 73.9438 31.5646C70.1742 27.6814 65.4574 24.848 60.2585 23.344C55.0597 21.84 49.5587 21.7174 44.298 22.9883C39.0374 24.2592 34.199 26.8797 30.2601 30.5912C26.3213 34.3027 23.4182 38.9769 21.8371 44.1528C21.5786 44.9994 21.3568 45.8546 21.172 46.7161C20.6131 49.3208 20.3917 51.9828 20.5103 54.6365C20.5139 54.7186 20.5179 54.8007 20.5223 54.8828C20.5224 54.8854 20.5225 54.8879 20.5227 54.8904L20.4792 54.885C20.4794 54.8875 20.4795 54.8901 20.4796 54.8927C20.4836 54.9734 20.4877 55.0546 20.4918 55.1362C20.6138 57.5313 20.8124 60.2723 21.0977 63.2186C22.8066 80.8702 27.6237 105.896 37.682 108.131C52.4272 111.408 60.6189 94.2055 57.3422 81.0986C52.2632 60.7825 36.2588 57.8185 30.96 56.8371C30.3734 56.7285 29.918 56.6441 29.6231 56.5632ZM29.5067 64.899C30.2092 71.2879 31.3167 78.4016 32.9117 84.7858C34.1978 89.9334 35.6961 94.1711 37.3071 97.0942C38.6381 99.5092 39.5145 100.088 39.6258 100.17C42.8205 100.821 45.3104 99.6148 47.3382 96.3942C49.6177 92.7737 50.497 87.4934 49.395 83.0854C47.3832 75.0382 43.4266 70.9351 39.8064 68.6098C35.9686 66.1447 32.0373 65.3682 29.5067 64.899Z" fill="#62C4F6"/>
<path fill-rule="evenodd" clip-rule="evenodd" d="M147.793 30.0943L114.685 49.2094L109.77 40.6963L142.878 21.5812L147.793 30.0943Z" fill="#62C4F6"/>
<path fill-rule="evenodd" clip-rule="evenodd" d="M148 82.7369H109.77V72.9067L148 72.9067V82.7369Z" fill="#62C4F6"/>
<path fill-rule="evenodd" clip-rule="evenodd" d="M142.878 135.599L109.77 116.484L114.685 107.971L147.793 127.086L142.878 135.599Z" fill="#62C4F6"/>
<path fill-rule="evenodd" clip-rule="evenodd" d="M0.56235 44.6859C3.94536 19.4556 25.5549 0 51.71 0C80.1902 0 103.282 23.0697 103.318 51.5414C103.598 60.6248 99.7816 81.7311 82.4689 97.1026C80.6732 99.21 79.2342 103.119 78.2989 108.074C77.382 112.931 77.0695 118.106 77.0625 121.962C77.0904 122.537 77.1045 123.115 77.1045 123.696C77.1045 123.897 77.1028 124.098 77.0995 124.299L77.1017 124.364L77.2589 128.611H76.7642C74.3723 145.739 59.666 158.92 41.8799 158.92C22.4259 158.92 6.65528 143.15 6.65528 123.696C6.65528 119.639 5.82897 95.4695 2.66831 82.0367C-0.0792668 70.3595 -0.174245 55.6713 0.106533 49.775L0.351707 44.6263L0.56235 44.6859ZM8.19646 53.7419C8.13758 60.4266 8.57926 71.3924 10.6423 80.1604C14.0351 94.5797 14.8471 119.56 14.8471 123.696C14.8471 138.626 26.9501 150.729 41.8799 150.729C56.5713 150.729 68.5264 139.008 68.9036 124.409L68.905 124.362L68.9072 124.251C68.9109 124.067 68.9128 123.882 68.9128 123.696C68.9128 123.218 68.9004 122.744 68.8761 122.274L68.8706 122.167L68.8707 122.061C68.8724 117.841 69.205 112.086 70.2493 106.555C71.2594 101.204 73.0668 95.2996 76.5176 91.4654L76.6772 91.2881L76.8562 91.1306C92.0945 77.7209 95.3722 59.0486 95.1287 51.7446L95.1264 51.6764V51.6082C95.1264 27.63 75.6883 8.19177 51.71 8.19177C28.2313 8.19177 9.10408 26.8299 8.31876 50.1156L8.19646 53.7419Z" fill="#62C4F6"/>
</svg>
