<svg width="353" height="65" viewBox="0 0 353 65" fill="none" xmlns="http://www.w3.org/2000/svg">
<path d="M119.205 11.3911V15.0314H104.605V23.6431H117.64V27.2835H104.605V36.0125H119.753V39.692H100.808V11.3911H119.205Z" fill="white"/>
<path d="M127.321 40.0443C126.12 40.0443 124.972 39.8356 123.876 39.418C122.806 39.0005 121.932 38.3872 121.253 37.5783L122.819 35.4645C123.472 36.0908 124.15 36.5736 124.855 36.9128C125.585 37.2521 126.303 37.4217 127.008 37.4217C127.869 37.4217 128.573 37.2521 129.121 36.9128C129.669 36.5736 129.943 36.0517 129.943 35.3471C129.943 34.7991 129.774 34.3554 129.435 34.0162C129.095 33.6769 128.704 33.429 128.26 33.2725C127.843 33.1159 127.125 32.881 126.107 32.5679C123.341 31.6806 121.958 30.1018 121.958 27.8315C121.958 26.4745 122.454 25.3132 123.446 24.3477C124.463 23.3821 125.872 22.8993 127.673 22.8993C128.821 22.8993 129.839 23.0429 130.726 23.3299C131.614 23.617 132.436 24.0737 133.192 24.7L131.744 26.9312C131.326 26.4875 130.792 26.1352 130.139 25.8743C129.513 25.6133 128.913 25.4698 128.338 25.4437C127.608 25.4437 126.982 25.6264 126.46 25.9917C125.938 26.331 125.677 26.8007 125.677 27.4009C125.677 27.8967 125.846 28.3142 126.186 28.6535C126.525 28.9666 126.877 29.2015 127.242 29.3581C127.608 29.4886 128.325 29.7234 129.395 30.0627C130.726 30.5063 131.757 31.0804 132.488 31.785C133.245 32.4896 133.623 33.4421 133.623 34.6425C133.623 36.2082 133.075 37.5 131.979 38.5177C130.883 39.5355 129.33 40.0443 127.321 40.0443Z" fill="white"/>
<path d="M141.225 16.3623V23.5256H145.648V26.4223H141.225V39.692H137.545V26.4223H134.57V23.5256H137.545V16.3623H141.225Z" fill="white"/>
<path d="M154.939 36.952C156.296 36.952 157.614 36.4822 158.892 35.5428L160.576 38.2437C159.714 38.8178 158.775 39.2745 157.757 39.6138C156.766 39.9269 155.8 40.0835 154.861 40.0835C153.06 40.0835 151.481 39.7181 150.124 38.9875C148.793 38.2307 147.762 37.1999 147.032 35.8951C146.301 34.5903 145.936 33.1159 145.936 31.4718C145.936 29.88 146.327 28.4317 147.11 27.1269C147.919 25.796 149.015 24.7522 150.398 23.9954C151.781 23.2125 153.295 22.8211 154.939 22.8211C157.053 22.8211 158.814 23.4474 160.223 24.7C161.659 25.9265 162.637 27.6488 163.159 29.8669L150.32 34.3685C150.79 35.1775 151.416 35.8168 152.199 36.2865C153.008 36.7302 153.921 36.952 154.939 36.952ZM154.665 25.7177C153.177 25.7177 151.951 26.2396 150.985 27.2835C150.02 28.3273 149.537 29.6582 149.537 31.2761C149.537 31.6676 149.55 31.9677 149.576 32.1764L159.01 28.6926C158.618 27.8054 158.057 27.0877 157.327 26.5397C156.622 25.9917 155.735 25.7177 154.665 25.7177Z" fill="white"/>
<path d="M175.314 22.8211C176.776 22.8211 178.107 23.1734 179.307 23.8779C180.534 24.5825 181.499 25.5742 182.204 26.8529C182.908 28.1316 183.261 29.619 183.261 31.3153C183.261 33.0898 182.882 34.6425 182.125 35.9734C181.369 37.3043 180.338 38.322 179.033 39.0266C177.754 39.7312 176.358 40.0835 174.845 40.0835C173.514 40.0835 172.3 39.8225 171.204 39.3006C170.134 38.7787 169.26 38.0741 168.582 37.1868V39.692H164.941V9.35559H168.582V25.6394C169.26 24.7782 170.187 24.0998 171.361 23.6039C172.561 23.082 173.879 22.8211 175.314 22.8211ZM174.062 36.952C175.654 36.952 176.958 36.417 177.976 35.3471C179.02 34.2771 179.542 32.9332 179.542 31.3153C179.542 30.2714 179.294 29.332 178.798 28.4969C178.329 27.6357 177.676 26.9573 176.841 26.4614C176.006 25.9656 175.08 25.7177 174.062 25.7177C172.731 25.7177 171.557 26.083 170.539 26.8137C169.547 27.5183 168.895 28.4578 168.582 29.6321V32.9202C168.895 34.0945 169.547 35.06 170.539 35.8168C171.531 36.5736 172.705 36.952 174.062 36.952Z" fill="white"/>
<path d="M202.041 23.4865V39.692H198.4V37.0303C197.826 37.787 196.991 38.4916 195.895 39.144C194.799 39.7703 193.56 40.0835 192.177 40.0835C190.637 40.0835 189.241 39.7573 187.988 39.1049C186.762 38.4264 185.783 37.4478 185.052 36.1691C184.348 34.8904 183.995 33.3638 183.995 31.5893C183.995 29.8148 184.361 28.2751 185.092 26.9703C185.848 25.6394 186.853 24.6217 188.106 23.9171C189.384 23.1864 190.793 22.8211 192.333 22.8211C193.716 22.8211 194.917 23.1212 195.934 23.7214C196.952 24.3216 197.774 25.1044 198.4 26.07L198.674 23.4865H202.041ZM193.155 37.0694C194.486 37.0694 195.621 36.7041 196.561 35.9734C197.526 35.2166 198.139 34.1989 198.4 32.9202V29.7104C198.087 28.5622 197.435 27.6357 196.443 26.9312C195.452 26.2005 194.316 25.8351 193.038 25.8351C192.072 25.8351 191.172 26.07 190.337 26.5397C189.528 27.0094 188.875 27.6749 188.38 28.5361C187.91 29.3711 187.675 30.3236 187.675 31.3936C187.675 32.4374 187.923 33.3899 188.419 34.2511C188.915 35.1122 189.58 35.8038 190.415 36.3257C191.25 36.8215 192.164 37.0694 193.155 37.0694Z" fill="white"/>
<path d="M215.699 22.8602C217.212 22.8602 218.465 23.3169 219.456 24.2302C220.448 25.1175 220.957 26.2788 220.983 27.714V39.692H217.304V28.9666C217.251 28.0533 216.977 27.3356 216.481 26.8137C215.986 26.2918 215.242 26.0178 214.25 25.9917C212.815 25.9917 211.628 26.5658 210.688 27.714C209.749 28.8623 209.279 30.3236 209.279 32.0981V39.692H205.639V23.4865H208.927L209.162 26.618C209.736 25.4437 210.597 24.5303 211.745 23.8779C212.893 23.1994 214.211 22.8602 215.699 22.8602Z" fill="white"/>
<path d="M252.499 11.3911L240.012 41.0229L227.526 11.3911H232.027L240.169 31.785L248.037 11.3911H252.499Z" fill="white"/>
<path d="M248.642 31.4327C248.642 29.8408 249.021 28.3925 249.778 27.0877C250.56 25.7568 251.63 24.713 252.987 23.9562C254.37 23.1995 255.923 22.8211 257.645 22.8211C259.368 22.8211 260.894 23.1995 262.225 23.9562C263.582 24.713 264.626 25.7438 265.357 27.0486C266.114 28.3534 266.492 29.8148 266.492 31.4327C266.492 33.0506 266.114 34.5251 265.357 35.8559C264.626 37.1607 263.582 38.1915 262.225 38.9483C260.868 39.7051 259.316 40.0835 257.567 40.0835C255.871 40.0835 254.344 39.7312 252.987 39.0266C251.63 38.2959 250.56 37.2782 249.778 35.9734C249.021 34.6686 248.642 33.155 248.642 31.4327ZM252.322 31.4718C252.322 32.4896 252.544 33.429 252.987 34.2902C253.457 35.1514 254.083 35.8299 254.866 36.3257C255.675 36.8215 256.563 37.0694 257.528 37.0694C259.042 37.0694 260.294 36.5344 261.286 35.4645C262.277 34.3946 262.773 33.0637 262.773 31.4718C262.773 29.88 262.277 28.5491 261.286 27.4792C260.294 26.3831 259.042 25.8351 257.528 25.8351C256.536 25.8351 255.649 26.0961 254.866 26.618C254.083 27.1138 253.457 27.7923 252.987 28.6535C252.544 29.5147 252.322 30.4541 252.322 31.4718Z" fill="white"/>
<path d="M272.282 9.35559V39.692H268.642V9.35559H272.282Z" fill="white"/>
<path d="M291.302 23.4865L282.651 40.1618H282.455L273.452 23.4865H277.797L282.69 33.8205L287.231 23.4865H291.302Z" fill="white"/>
<path d="M299.693 36.952C301.05 36.952 302.368 36.4822 303.646 35.5428L305.33 38.2437C304.469 38.8178 303.529 39.2745 302.511 39.6138C301.52 39.9269 300.554 40.0835 299.615 40.0835C297.814 40.0835 296.235 39.7181 294.878 38.9875C293.547 38.2307 292.517 37.1999 291.786 35.8951C291.055 34.5903 290.69 33.1159 290.69 31.4718C290.69 29.88 291.081 28.4317 291.864 27.1269C292.673 25.796 293.769 24.7522 295.152 23.9954C296.535 23.2125 298.049 22.8211 299.693 22.8211C301.807 22.8211 303.568 23.4474 304.977 24.7C306.413 25.9265 307.391 27.6488 307.913 29.8669L295.074 34.3685C295.544 35.1775 296.17 35.8168 296.953 36.2865C297.762 36.7302 298.675 36.952 299.693 36.952ZM299.419 25.7177C297.931 25.7177 296.705 26.2396 295.739 27.2835C294.774 28.3273 294.291 29.6582 294.291 31.2761C294.291 31.6676 294.304 31.9677 294.33 32.1764L303.764 28.6926C303.372 27.8054 302.811 27.0877 302.081 26.5397C301.376 25.9917 300.489 25.7177 299.419 25.7177Z" fill="white"/>
<path d="M313.218 27.3226C313.636 26.4353 314.223 25.6525 314.98 24.974C315.763 24.2955 316.585 23.7736 317.446 23.4082C318.307 23.0429 319.064 22.8472 319.716 22.8211L319.56 26.4614C318.385 26.4092 317.315 26.6441 316.35 27.166C315.41 27.6879 314.667 28.4186 314.119 29.3581C313.597 30.2714 313.336 31.25 313.336 32.2939V39.692H309.695V23.4865H312.944L313.218 27.3226Z" fill="white"/>
<path d="M337.926 23.4865V39.692H334.286V37.0303C333.712 37.787 332.877 38.4916 331.781 39.144C330.685 39.7703 329.445 40.0835 328.062 40.0835C326.522 40.0835 325.126 39.7573 323.874 39.1049C322.647 38.4264 321.669 37.4478 320.938 36.1691C320.233 34.8904 319.881 33.3638 319.881 31.5893C319.881 29.8148 320.246 28.2751 320.977 26.9703C321.734 25.6394 322.739 24.6217 323.991 23.9171C325.27 23.1864 326.679 22.8211 328.219 22.8211C329.602 22.8211 330.802 23.1212 331.82 23.7214C332.838 24.3216 333.66 25.1044 334.286 26.07L334.56 23.4865H337.926ZM329.041 37.0694C330.372 37.0694 331.507 36.7041 332.446 35.9734C333.412 35.2166 334.025 34.1989 334.286 32.9202V29.7104C333.973 28.5622 333.32 27.6357 332.329 26.9312C331.337 26.2005 330.202 25.8351 328.923 25.8351C327.958 25.8351 327.057 26.07 326.222 26.5397C325.413 27.0094 324.761 27.6749 324.265 28.5361C323.795 29.3711 323.561 30.3236 323.561 31.3936C323.561 32.4374 323.809 33.3899 324.304 34.2511C324.8 35.1122 325.466 35.8038 326.301 36.3257C327.136 36.8215 328.049 37.0694 329.041 37.0694Z" fill="white"/>
<path d="M346.104 40.0443C344.904 40.0443 343.755 39.8356 342.659 39.418C341.589 39.0005 340.715 38.3872 340.037 37.5783L341.603 35.4645C342.255 36.0908 342.933 36.5736 343.638 36.9128C344.369 37.2521 345.086 37.4217 345.791 37.4217C346.652 37.4217 347.357 37.2521 347.905 36.9128C348.453 36.5736 348.727 36.0517 348.727 35.3471C348.727 34.7991 348.557 34.3554 348.218 34.0162C347.879 33.6769 347.487 33.429 347.044 33.2725C346.626 33.1159 345.908 32.881 344.891 32.5679C342.124 31.6806 340.741 30.1018 340.741 27.8315C340.741 26.4745 341.237 25.3132 342.229 24.3477C343.247 23.3821 344.656 22.8993 346.456 22.8993C347.605 22.8993 348.622 23.0429 349.51 23.3299C350.397 23.617 351.219 24.0737 351.976 24.7L350.527 26.9312C350.11 26.4875 349.575 26.1352 348.922 25.8743C348.296 25.6133 347.696 25.4698 347.122 25.4437C346.391 25.4437 345.765 25.6264 345.243 25.9917C344.721 26.331 344.46 26.8007 344.46 27.4009C344.46 27.8967 344.63 28.3142 344.969 28.6535C345.308 28.9666 345.66 29.2015 346.026 29.3581C346.391 29.4886 347.109 29.7234 348.179 30.0627C349.51 30.5063 350.54 31.0804 351.271 31.785C352.028 32.4896 352.406 33.4421 352.406 34.6425C352.406 36.2082 351.858 37.5 350.762 38.5177C349.666 39.5355 348.113 40.0443 346.104 40.0443Z" fill="white"/>
<path d="M102.201 44.3426H103.169V58.3662H102.201V44.3426Z" fill="white"/>
<path d="M112.519 50.6433L112.618 53.0728L112.499 52.5987C112.723 51.9272 113.144 51.4005 113.763 51.0186C114.395 50.6236 115.093 50.4261 115.857 50.4261C116.581 50.4261 117.167 50.6433 117.615 51.0779C118.062 51.4992 118.293 52.0523 118.306 52.737V58.3662H117.358V52.9938C117.345 52.4934 117.187 52.0786 116.884 51.7494C116.581 51.4202 116.14 51.249 115.561 51.2359C115.047 51.2359 114.566 51.361 114.119 51.6112C113.671 51.8613 113.309 52.2103 113.032 52.658C112.769 53.1057 112.637 53.6258 112.637 54.2183V58.3662H111.709V50.6433H112.519Z" fill="white"/>
<path d="M127.129 47.2461H128.077V50.7421H130.467V51.4926H128.077V58.3662H127.129V51.4926H125.49V50.7421H127.129V47.2461Z" fill="white"/>
<path d="M140.683 58.5242C139.879 58.5242 139.168 58.3464 138.55 57.9909C137.931 57.6353 137.443 57.1547 137.088 56.549C136.746 55.9301 136.574 55.2388 136.574 54.4751C136.574 53.7246 136.759 53.0398 137.127 52.421C137.496 51.8021 137.99 51.3083 138.609 50.9396C139.241 50.5709 139.939 50.3866 140.702 50.3866C141.624 50.3866 142.394 50.6565 143.013 51.1964C143.645 51.7362 144.1 52.4407 144.376 53.3098L137.621 55.917L137.345 55.2454L143.527 52.8357L143.329 53.1123C143.106 52.5856 142.763 52.1313 142.302 51.7494C141.855 51.3676 141.302 51.1766 140.643 51.1766C140.051 51.1766 139.517 51.3215 139.043 51.6112C138.569 51.9008 138.187 52.2893 137.898 52.7765C137.621 53.2637 137.483 53.8167 137.483 54.4356C137.483 55.015 137.615 55.5549 137.878 56.0552C138.154 56.5556 138.536 56.9572 139.024 57.2601C139.511 57.5629 140.07 57.7144 140.702 57.7144C141.124 57.7144 141.525 57.6353 141.907 57.4773C142.302 57.3193 142.651 57.1152 142.954 56.865L143.428 57.5366C143.059 57.8263 142.631 58.0633 142.144 58.2476C141.67 58.432 141.183 58.5242 140.683 58.5242Z" fill="white"/>
<path d="M152.303 50.6433L152.401 53.0135L152.283 52.7172C152.454 52.2432 152.724 51.835 153.093 51.4926C153.461 51.1503 153.869 50.8869 154.317 50.7026C154.778 50.5182 155.219 50.4261 155.641 50.4261L155.601 51.3346C155.008 51.3346 154.469 51.4663 153.981 51.7297C153.507 51.993 153.126 52.3485 152.836 52.7962C152.559 53.2308 152.421 53.7246 152.421 54.2776V58.3662H151.493V50.6433H152.303Z" fill="white"/>
<path d="M165.89 58.5242C165.152 58.5242 164.481 58.3596 163.875 58.0304C163.283 57.688 162.809 57.214 162.453 56.6083C162.111 56.0026 161.94 55.2981 161.94 54.4949C161.94 53.639 162.124 52.9082 162.493 52.3025C162.861 51.6836 163.362 51.2161 163.994 50.9001C164.626 50.5709 165.343 50.4063 166.147 50.4063C166.831 50.4063 167.477 50.6104 168.082 51.0186C168.701 51.4268 169.142 51.9403 169.406 52.5592L169.267 52.8357L169.386 50.6433H170.215V58.3662H169.287V55.9762L169.485 56.3318C169.392 56.5951 169.234 56.8585 169.011 57.1218C168.787 57.372 168.51 57.609 168.181 57.8329C167.865 58.0435 167.509 58.2147 167.114 58.3464C166.733 58.4649 166.324 58.5242 165.89 58.5242ZM166.087 57.7341C166.667 57.7341 167.187 57.6156 167.648 57.3786C168.122 57.1284 168.504 56.786 168.793 56.3515C169.083 55.917 169.248 55.4166 169.287 54.8504V53.7443C169.182 53.2571 168.971 52.8226 168.655 52.4407C168.352 52.0589 167.977 51.756 167.529 51.5321C167.082 51.3083 166.594 51.1964 166.068 51.1964C165.488 51.1964 164.955 51.3346 164.468 51.6112C163.981 51.8745 163.592 52.2498 163.302 52.737C163.013 53.2242 162.868 53.797 162.868 54.4554C162.868 55.0611 163.013 55.6141 163.302 56.1145C163.592 56.6017 163.981 56.9967 164.468 57.2996C164.968 57.5893 165.508 57.7341 166.087 57.7341Z" fill="white"/>
<path d="M184.231 57.6156C183.875 57.9053 183.474 58.1291 183.026 58.2871C182.578 58.4452 182.111 58.5242 181.624 58.5242C180.834 58.5242 180.129 58.353 179.51 58.0106C178.891 57.6551 178.404 57.1745 178.049 56.5688C177.693 55.9631 177.515 55.2718 177.515 54.4949C177.515 53.718 177.7 53.0267 178.068 52.421C178.437 51.8153 178.924 51.3412 179.53 50.9989C180.149 50.6433 180.821 50.4656 181.545 50.4656C182.085 50.4656 182.585 50.5446 183.046 50.7026C183.507 50.8606 183.908 51.0844 184.251 51.3741L183.757 52.0062C183.48 51.7823 183.158 51.598 182.789 51.4531C182.42 51.3083 182.025 51.2359 181.604 51.2359C181.025 51.2359 180.491 51.3807 180.004 51.6704C179.53 51.9601 179.148 52.3551 178.859 52.8555C178.582 53.3427 178.444 53.8892 178.444 54.4949C178.444 55.0874 178.582 55.6339 178.859 56.1342C179.148 56.6214 179.537 57.0099 180.024 57.2996C180.524 57.5893 181.077 57.7341 181.683 57.7341C182.078 57.7341 182.447 57.6749 182.789 57.5563C183.131 57.4247 183.441 57.2535 183.717 57.0428L184.231 57.6156Z" fill="white"/>
<path d="M192.124 47.2461H193.072V50.7421H195.462V51.4926H193.072V58.3662H192.124V51.4926H190.485V50.7421H192.124V47.2461Z" fill="white"/>
<path d="M202.32 50.6433H203.248V58.3662H202.32V50.6433ZM202.122 47.7991C202.122 47.6148 202.194 47.4633 202.339 47.3448C202.484 47.2132 202.642 47.1473 202.813 47.1473C202.998 47.1473 203.156 47.2132 203.287 47.3448C203.419 47.4633 203.485 47.6148 203.485 47.7991C203.485 47.9966 203.419 48.1612 203.287 48.2929C203.156 48.4114 202.998 48.4707 202.813 48.4707C202.642 48.4707 202.484 48.4048 202.339 48.2732C202.194 48.1415 202.122 47.9835 202.122 47.7991Z" fill="white"/>
<path d="M210.548 54.4554C210.548 53.7048 210.726 53.0201 211.082 52.4012C211.45 51.7823 211.944 51.2951 212.563 50.9396C213.195 50.5709 213.899 50.3866 214.676 50.3866C215.466 50.3866 216.171 50.5709 216.79 50.9396C217.409 51.2951 217.896 51.7823 218.251 52.4012C218.607 53.0201 218.785 53.7048 218.785 54.4554C218.785 55.2059 218.607 55.8906 218.251 56.5095C217.896 57.1284 217.402 57.6222 216.77 57.9909C216.151 58.3464 215.453 58.5242 214.676 58.5242C213.886 58.5242 213.182 58.353 212.563 58.0106C211.944 57.6551 211.45 57.1745 211.082 56.5688C210.726 55.9499 210.548 55.2454 210.548 54.4554ZM211.477 54.4751C211.477 55.0808 211.615 55.6339 211.891 56.1342C212.181 56.6214 212.563 57.0099 213.037 57.2996C213.524 57.5893 214.064 57.7341 214.657 57.7341C215.249 57.7341 215.782 57.5893 216.256 57.2996C216.744 57.0099 217.125 56.6214 217.402 56.1342C217.692 55.6339 217.837 55.0808 217.837 54.4751C217.837 53.8694 217.692 53.3229 217.402 52.8357C217.125 52.3354 216.744 51.9403 216.256 51.6507C215.782 51.3478 215.249 51.1964 214.657 51.1964C214.051 51.1964 213.504 51.3544 213.017 51.6704C212.543 51.9733 212.168 52.3749 211.891 52.8752C211.615 53.3756 211.477 53.9089 211.477 54.4751Z" fill="white"/>
<path d="M226.894 50.6433L226.992 53.0728L226.874 52.5987C227.098 51.9272 227.519 51.4005 228.138 51.0186C228.77 50.6236 229.468 50.4261 230.232 50.4261C230.956 50.4261 231.542 50.6433 231.989 51.0779C232.437 51.4992 232.668 52.0523 232.681 52.737V58.3662H231.733V52.9938C231.72 52.4934 231.562 52.0786 231.259 51.7494C230.956 51.4202 230.515 51.249 229.935 51.2359C229.422 51.2359 228.941 51.361 228.493 51.6112C228.046 51.8613 227.684 52.2103 227.407 52.658C227.144 53.1057 227.012 53.6258 227.012 54.2183V58.3662H226.084V50.6433H226.894Z" fill="white"/>
<path d="M254.494 58.5242C253.769 58.5242 253.111 58.353 252.518 58.0106C251.926 57.6551 251.452 57.1679 251.096 56.549C250.754 55.9301 250.583 55.2323 250.583 54.4554C250.583 53.6258 250.76 52.9082 251.116 52.3025C251.472 51.6967 251.952 51.2293 252.558 50.9001C253.177 50.5709 253.855 50.4063 254.592 50.4063C255.33 50.4063 256.028 50.5972 256.686 50.9791C257.357 51.361 257.845 51.8613 258.148 52.4802L257.99 52.9147V43.355H258.918V58.3662H257.97V55.996L258.167 56.4305C257.838 57.0494 257.344 57.5563 256.686 57.9514C256.028 58.3332 255.297 58.5242 254.494 58.5242ZM254.731 57.7144C255.323 57.7144 255.856 57.5893 256.33 57.3391C256.804 57.0757 257.186 56.7268 257.476 56.2922C257.766 55.8445 257.93 55.3442 257.97 54.7911V53.8036C257.878 53.3032 257.673 52.8555 257.357 52.4605C257.041 52.0654 256.66 51.756 256.212 51.5321C255.764 51.2951 255.27 51.1766 254.731 51.1766C254.138 51.1766 253.598 51.3149 253.111 51.5914C252.624 51.8679 252.235 52.2498 251.946 52.737C251.656 53.2242 251.511 53.7904 251.511 54.4356C251.511 55.0413 251.656 55.5944 251.946 56.0947C252.235 56.5819 252.624 56.977 253.111 57.2798C253.611 57.5695 254.151 57.7144 254.731 57.7144Z" fill="white"/>
<path d="M270.325 58.5242C269.522 58.5242 268.81 58.3464 268.192 57.9909C267.573 57.6353 267.086 57.1547 266.73 56.549C266.388 55.9301 266.216 55.2388 266.216 54.4751C266.216 53.7246 266.401 53.0398 266.769 52.421C267.138 51.8021 267.632 51.3083 268.251 50.9396C268.883 50.5709 269.581 50.3866 270.345 50.3866C271.266 50.3866 272.037 50.6565 272.655 51.1964C273.287 51.7362 273.742 52.4407 274.018 53.3098L267.263 55.917L266.987 55.2454L273.169 52.8357L272.971 53.1123C272.748 52.5856 272.405 52.1313 271.944 51.7494C271.497 51.3676 270.944 51.1766 270.285 51.1766C269.693 51.1766 269.159 51.3215 268.685 51.6112C268.211 51.9008 267.829 52.2893 267.54 52.7765C267.263 53.2637 267.125 53.8167 267.125 54.4356C267.125 55.015 267.257 55.5549 267.52 56.0552C267.797 56.5556 268.178 56.9572 268.666 57.2601C269.153 57.5629 269.712 57.7144 270.345 57.7144C270.766 57.7144 271.167 57.6353 271.549 57.4773C271.944 57.3193 272.293 57.1152 272.596 56.865L273.07 57.5366C272.702 57.8263 272.274 58.0633 271.786 58.2476C271.312 58.432 270.825 58.5242 270.325 58.5242Z" fill="white"/>
<path d="M282.952 58.5242C282.504 58.5242 282.037 58.4452 281.55 58.2871C281.062 58.116 280.667 57.846 280.365 57.4773L280.799 56.865C281.062 57.1416 281.372 57.3654 281.727 57.5366C282.096 57.6946 282.485 57.7736 282.893 57.7736C283.196 57.7736 283.479 57.7341 283.742 57.6551C284.019 57.5629 284.242 57.4115 284.414 57.2008C284.585 56.9901 284.67 56.707 284.67 56.3515C284.67 55.9828 284.565 55.6997 284.354 55.5022C284.157 55.3047 283.9 55.1467 283.584 55.0282C283.281 54.8965 282.959 54.778 282.616 54.6726C282.05 54.4883 281.583 54.2381 281.214 53.9221C280.858 53.6061 280.681 53.1584 280.681 52.579C280.681 52.1576 280.779 51.7889 280.977 51.4729C281.188 51.1569 281.471 50.9133 281.826 50.7421C282.182 50.5577 282.583 50.4656 283.031 50.4656C283.439 50.4656 283.841 50.5314 284.236 50.6631C284.644 50.7948 285.013 51.0186 285.342 51.3346L284.927 51.9864C284.716 51.6967 284.433 51.4992 284.078 51.3939C283.735 51.2885 283.433 51.2293 283.169 51.2161C282.945 51.2161 282.708 51.2622 282.458 51.3544C282.221 51.4466 282.017 51.5848 281.846 51.7692C281.688 51.9403 281.609 52.1708 281.609 52.4605C281.609 52.7633 281.694 53.0135 281.866 53.211C282.037 53.3954 282.254 53.5468 282.517 53.6653C282.794 53.7838 283.077 53.8957 283.367 54.0011C283.749 54.1196 284.104 54.2644 284.433 54.4356C284.776 54.5936 285.052 54.8109 285.263 55.0874C285.487 55.3508 285.599 55.7063 285.599 56.154C285.599 56.6017 285.5 57.0099 285.302 57.3786C285.105 57.7341 284.809 58.0172 284.414 58.2279C284.032 58.4254 283.545 58.5242 282.952 58.5242Z" fill="white"/>
<path d="M292.949 50.6433H293.878V58.3662H292.949V50.6433ZM292.752 47.7991C292.752 47.6148 292.824 47.4633 292.969 47.3448C293.114 47.2132 293.272 47.1473 293.443 47.1473C293.628 47.1473 293.786 47.2132 293.917 47.3448C294.049 47.4633 294.115 47.6148 294.115 47.7991C294.115 47.9966 294.049 48.1612 293.917 48.2929C293.786 48.4114 293.628 48.4707 293.443 48.4707C293.272 48.4707 293.114 48.4048 292.969 48.2732C292.824 48.1415 292.752 47.9835 292.752 47.7991Z" fill="white"/>
<path d="M305.365 62.1387C304.931 62.1387 304.516 62.086 304.121 61.9807C303.726 61.8885 303.338 61.7239 302.956 61.4869C302.574 61.2499 302.179 60.9404 301.771 60.5586L302.324 59.9265C302.89 60.4664 303.417 60.8285 303.904 61.0128C304.391 61.2104 304.865 61.3091 305.326 61.3091C306.129 61.3091 306.768 61.1774 307.242 60.9141C307.716 60.6639 308.058 60.3215 308.269 59.887C308.48 59.4657 308.591 58.9916 308.605 58.4649L308.624 55.9565L308.842 56.1935C308.578 56.8782 308.104 57.4378 307.42 57.8724C306.748 58.3069 305.984 58.5242 305.128 58.5242C304.404 58.5242 303.739 58.3464 303.133 57.9909C302.541 57.6222 302.067 57.135 301.711 56.5293C301.356 55.9104 301.178 55.2257 301.178 54.4751C301.178 53.6719 301.362 52.9674 301.731 52.3617C302.1 51.756 302.6 51.282 303.232 50.9396C303.864 50.5841 304.562 50.4063 305.326 50.4063C306.037 50.4063 306.709 50.5907 307.341 50.9594C307.986 51.328 308.453 51.8153 308.743 52.421L308.624 52.8555L308.723 50.6433H309.553V58.4847C309.553 59.1167 309.408 59.7093 309.118 60.2623C308.842 60.8285 308.394 61.2828 307.775 61.6251C307.169 61.9675 306.366 62.1387 305.365 62.1387ZM302.106 54.4554C302.106 55.0611 302.251 55.6141 302.541 56.1145C302.831 56.6017 303.219 56.9967 303.706 57.2996C304.207 57.5893 304.76 57.7341 305.365 57.7341C305.945 57.7341 306.471 57.609 306.946 57.3588C307.42 57.0955 307.808 56.7465 308.111 56.312C308.414 55.8775 308.585 55.41 308.624 54.9096V53.7641C308.519 53.2637 308.308 52.8226 307.992 52.4407C307.689 52.0589 307.308 51.756 306.847 51.5321C306.399 51.3083 305.905 51.1964 305.365 51.1964C304.76 51.1964 304.207 51.3346 303.706 51.6112C303.219 51.8877 302.831 52.2695 302.541 52.7567C302.251 53.2439 302.106 53.8101 302.106 54.4554Z" fill="white"/>
<path d="M318.43 50.6433L318.529 53.0728L318.41 52.5987C318.634 51.9272 319.056 51.4005 319.674 51.0186C320.306 50.6236 321.004 50.4261 321.768 50.4261C322.492 50.4261 323.078 50.6433 323.526 51.0779C323.974 51.4992 324.204 52.0523 324.217 52.737V58.3662H323.269V52.9938C323.256 52.4934 323.098 52.0786 322.795 51.7494C322.492 51.4202 322.051 51.249 321.472 51.2359C320.958 51.2359 320.478 51.361 320.03 51.6112C319.582 51.8613 319.22 52.2103 318.944 52.658C318.68 53.1057 318.549 53.6258 318.549 54.2183V58.3662H317.62V50.6433H318.43Z" fill="white"/>
<path d="M335.628 58.5242C334.825 58.5242 334.114 58.3464 333.495 57.9909C332.876 57.6353 332.389 57.1547 332.033 56.549C331.691 55.9301 331.52 55.2388 331.52 54.4751C331.52 53.7246 331.704 53.0398 332.073 52.421C332.441 51.8021 332.935 51.3083 333.554 50.9396C334.186 50.5709 334.884 50.3866 335.648 50.3866C336.57 50.3866 337.34 50.6565 337.959 51.1964C338.591 51.7362 339.045 52.4407 339.322 53.3098L332.567 55.917L332.29 55.2454L338.472 52.8357L338.275 53.1123C338.051 52.5856 337.709 52.1313 337.248 51.7494C336.8 51.3676 336.247 51.1766 335.589 51.1766C334.996 51.1766 334.463 51.3215 333.989 51.6112C333.515 51.9008 333.133 52.2893 332.843 52.7765C332.567 53.2637 332.428 53.8167 332.428 54.4356C332.428 55.015 332.56 55.5549 332.823 56.0552C333.1 56.5556 333.482 56.9572 333.969 57.2601C334.456 57.5629 335.016 57.7144 335.648 57.7144C336.069 57.7144 336.471 57.6353 336.853 57.4773C337.248 57.3193 337.597 57.1152 337.899 56.865L338.373 57.5366C338.005 57.8263 337.577 58.0633 337.09 58.2476C336.616 58.432 336.128 58.5242 335.628 58.5242Z" fill="white"/>
<path d="M347.248 50.6433L347.347 53.0135L347.228 52.7172C347.399 52.2432 347.669 51.835 348.038 51.4926C348.407 51.1503 348.815 50.8869 349.263 50.7026C349.723 50.5182 350.165 50.4261 350.586 50.4261L350.546 51.3346C349.954 51.3346 349.414 51.4663 348.927 51.7297C348.453 51.993 348.071 52.3485 347.781 52.7962C347.505 53.2308 347.366 53.7246 347.366 54.2776V58.3662H346.438V50.6433H347.248Z" fill="white"/>
<path d="M57.698 32.4486C57.698 34.6901 59.515 36.5071 61.7564 36.5071C63.9979 36.5071 65.8149 34.6901 65.8149 32.4486C65.8149 30.2072 63.9979 28.3901 61.7564 28.3901C59.515 28.3901 57.698 30.2072 57.698 32.4486Z" fill="#8582D9"/>
<path d="M29.0222 35.9799L35.7487 35.9799L35.7487 29.2534L29.0222 29.2534L29.0222 35.9799Z" fill="#62C4F6"/>
<path fill-rule="evenodd" clip-rule="evenodd" d="M61.7221 0L94.223 32.5009L63.362 63.3619L60.0822 60.0822L87.6635 32.5009L61.7221 6.55951L43.8812 24.4004L40.6014 21.1206L61.7221 0Z" fill="#8582D9"/>
<path fill-rule="evenodd" clip-rule="evenodd" d="M6.55952 32.4991L34.1408 4.91782L30.861 1.63806L0 32.4991L32.5009 65L53.7946 43.8793L50.3418 40.5996L32.5009 58.4405L6.55952 32.4991Z" fill="#62C4F6"/>
</svg>
