<svg width="1103" height="763" viewBox="0 0 1103 763" fill="none" xmlns="http://www.w3.org/2000/svg">
<path d="M675.504 382.571C675.504 407.335 695.579 427.41 720.343 427.41C745.107 427.41 765.182 407.335 765.182 382.571C765.182 357.807 745.107 337.732 720.343 337.732C695.579 337.732 675.504 357.807 675.504 382.571Z" stroke="#8582D9" stroke-width="5"/>
<path d="M341.022 419.936L414.483 419.936L414.483 346.476L341.022 346.476L341.022 419.936Z" stroke="#62C4F6" stroke-width="5"/>
<path fill-rule="evenodd" clip-rule="evenodd" d="M719.94 4L1099.04 383.098L739.068 743.068L700.812 704.813L1022.53 383.098L719.94 80.5117L511.839 288.612L473.583 250.356L719.94 4Z" stroke="#8582D9" stroke-width="5"/>
<path d="M74.744 381.309L72.9762 383.077L74.744 384.845L377.331 687.431L379.098 689.199L380.866 687.431L587.244 481.054L623.883 515.858L379.106 758.647L3.53554 383.077L359.97 26.6425L394.691 61.3628L74.744 381.309Z" stroke="#62C4F6" stroke-width="5"/>
</svg>
