<svg width="99" height="69" viewBox="0 0 99 69" fill="none" xmlns="http://www.w3.org/2000/svg">
<path d="M60.6233 34.0938C60.6233 36.4489 62.5325 38.358 64.8876 38.358C67.2427 38.358 69.1519 36.4489 69.1519 34.0938C69.1519 31.7387 67.2427 29.8295 64.8876 29.8295C62.5325 29.8295 60.6233 31.7387 60.6233 34.0938Z" fill="#8582D9"/>
<path d="M30.4937 37.8041L37.5613 37.8041L37.5613 30.7365L30.4937 30.7365L30.4937 37.8041Z" fill="#62C4F6"/>
<path fill-rule="evenodd" clip-rule="evenodd" d="M64.8513 0L99 34.1487L66.5743 66.5744L63.1283 63.1283L92.1079 34.1487L64.8513 6.89208L46.1059 25.6375L42.6599 22.1915L64.8513 0Z" fill="#8582D9"/>
<path fill-rule="evenodd" clip-rule="evenodd" d="M6.89208 34.1468L35.8717 5.16717L32.4257 1.72113L0 34.1468L34.1487 68.2955L56.5219 46.104L52.8941 42.658L34.1487 61.4034L6.89208 34.1468Z" fill="#62C4F6"/>
</svg>
