<svg width="142" height="132" viewBox="0 0 142 132" fill="none" xmlns="http://www.w3.org/2000/svg">
<path fill-rule="evenodd" clip-rule="evenodd" d="M136.409 66.7221L4.29504 7.85501L6.48977 2.92944L138.604 61.7965L136.409 66.7221Z" fill="white"/>
<path fill-rule="evenodd" clip-rule="evenodd" d="M6.48973 66.7221L138.604 7.85501L136.409 2.92944L4.295 61.7965L6.48973 66.7221Z" fill="white"/>
<path fill-rule="evenodd" clip-rule="evenodd" d="M133.013 7.18987H8.98734C7.99463 7.18987 7.18987 7.99463 7.18987 8.98734V61.1139C7.18987 62.1066 7.99463 62.9114 8.98734 62.9114H133.013C134.005 62.9114 134.81 62.1066 134.81 61.1139V8.98734C134.81 7.99463 134.005 7.18987 133.013 7.18987ZM8.98734 0C4.02377 0 0 4.02377 0 8.98734V61.1139C0 66.0775 4.02377 70.1013 8.98734 70.1013H133.013C137.976 70.1013 142 66.0775 142 61.1139V8.98734C142 4.02377 137.976 0 133.013 0H8.98734Z" fill="white"/>
<path fill-rule="evenodd" clip-rule="evenodd" d="M83.5823 115.937H13.481C12.4883 115.937 11.6835 116.741 11.6835 117.734V122.228C11.6835 123.221 12.4883 124.025 13.481 124.025H83.5823C84.575 124.025 85.3797 123.221 85.3797 122.228V117.734C85.3797 116.741 84.575 115.937 83.5823 115.937ZM13.481 108.747C8.51742 108.747 4.49365 112.771 4.49365 117.734V122.228C4.49365 127.191 8.51742 131.215 13.481 131.215H83.5823C88.5458 131.215 92.5696 127.191 92.5696 122.228V117.734C92.5696 112.771 88.5458 108.747 83.5823 108.747H13.481Z" fill="white"/>
<path fill-rule="evenodd" clip-rule="evenodd" d="M129.418 115.937H105.152C104.159 115.937 103.354 116.741 103.354 117.734V122.228C103.354 123.221 104.159 124.025 105.152 124.025H129.418C130.41 124.025 131.215 123.221 131.215 122.228V117.734C131.215 116.741 130.41 115.937 129.418 115.937ZM105.152 108.747C100.188 108.747 96.1646 112.771 96.1646 117.734V122.228C96.1646 127.191 100.188 131.215 105.152 131.215H129.418C134.381 131.215 138.405 127.191 138.405 122.228V117.734C138.405 112.771 134.381 108.747 129.418 108.747H105.152Z" fill="white"/>
<path fill-rule="evenodd" clip-rule="evenodd" d="M3.59497 82.6835C3.59497 81.1944 4.8021 79.9873 6.29117 79.9873H81.7848C83.2739 79.9873 84.481 81.1944 84.481 82.6835C84.481 84.1726 83.2739 85.3797 81.7848 85.3797H6.29117C4.8021 85.3797 3.59497 84.1726 3.59497 82.6835Z" fill="white"/>
<path fill-rule="evenodd" clip-rule="evenodd" d="M3.59497 96.1647C3.59497 94.6756 4.8021 93.4685 6.29117 93.4685H135.709C137.198 93.4685 138.405 94.6756 138.405 96.1647C138.405 97.6538 137.198 98.8609 135.709 98.8609H6.29117C4.8021 98.8609 3.59497 97.6538 3.59497 96.1647Z" fill="white"/>
<path fill-rule="evenodd" clip-rule="evenodd" d="M89.8734 82.6835C89.8734 81.1944 91.0805 79.9873 92.5696 79.9873L135.709 79.9873C137.198 79.9873 138.405 81.1944 138.405 82.6835C138.405 84.1726 137.198 85.3797 135.709 85.3797L92.5696 85.3797C91.0805 85.3797 89.8734 84.1726 89.8734 82.6835Z" fill="white"/>
</svg>
