<svg width="127" height="113" viewBox="0 0 127 113" fill="none" xmlns="http://www.w3.org/2000/svg">
<path d="M63.5203 67.7221C69.7875 67.7221 74.868 62.6416 74.868 56.3744C74.868 50.1072 69.7875 45.0266 63.5203 45.0266C57.2531 45.0266 52.1725 50.1072 52.1725 56.3744C52.1725 62.6416 57.2531 67.7221 63.5203 67.7221Z" fill="#62C4F6"/>
<path d="M63.5203 82.3701C47.5837 82.3701 33.659 80.4939 23.238 76.9223C16.4791 74.6166 10.7374 71.5423 6.64589 68.0385C2.30572 64.3313 0 60.285 0 56.3743C0 48.8694 8.22825 41.5227 22.04 36.7305C33.3425 32.7972 48.081 30.6045 63.4977 30.6045C78.6431 30.6045 93.1781 32.7294 104.413 36.6174C110.991 38.878 116.529 41.8166 120.462 45.0717C124.735 48.6434 126.995 52.554 126.995 56.3743C126.995 64.173 117.795 72.0622 102.966 76.9675C92.4774 80.4487 78.4622 82.3701 63.5203 82.3701ZM63.5203 36.0297C48.8948 36.0297 34.4275 38.1546 23.8484 41.8392C11.1443 46.2698 5.44782 52.328 5.44782 56.3743C5.44782 60.5788 11.5738 67.2021 25.0012 71.791C34.857 75.1591 48.194 76.9449 63.5203 76.9449C77.8971 76.9449 91.3019 75.1365 101.271 71.8136C115.218 67.1795 121.593 60.5562 121.593 56.3743C121.593 54.2268 119.965 51.695 117.004 49.2311C113.591 46.3828 108.617 43.7833 102.672 41.7262C91.9801 38.0642 78.0779 36.0297 63.5203 36.0297Z" fill="#62C4F6"/>
<path d="M37.773 112.932C35.4673 112.932 33.4328 112.435 31.7149 111.44C25.2272 107.688 22.9667 96.8826 25.7019 82.5283C27.9398 70.7511 33.4102 56.9168 41.1186 43.5572C48.6913 30.4462 57.7785 18.9176 66.7527 11.1189C71.9971 6.55266 77.3093 3.20711 82.1016 1.44391C87.3233 -0.47752 91.8444 -0.477519 95.1447 1.42131C101.904 5.30938 104.142 17.2449 100.977 32.5259C98.7389 43.3763 93.4041 56.4647 85.9444 69.4174C77.9875 83.2065 69.3975 94.3282 61.1015 101.584C55.7214 106.286 50.1832 109.722 45.1197 111.508C42.4749 112.457 39.9883 112.932 37.773 112.932ZM43.4469 44.9135L45.7978 46.2698C38.4964 58.9286 33.0938 72.5143 31.0141 83.5456C28.5049 96.7695 30.9237 104.727 34.4049 106.738C35.2638 107.236 36.3941 107.507 37.773 107.507C42.2714 107.507 49.3468 104.659 57.5299 97.5155C65.3738 90.6662 73.5795 79.9966 81.2426 66.7274C88.431 54.272 93.5397 41.7488 95.6646 31.4635C98.6259 17.064 96.0715 8.24804 92.4321 6.14577C90.5785 5.08333 87.572 5.21896 83.9552 6.55266C79.7732 8.0898 75.0488 11.0963 70.3017 15.233C61.7796 22.6475 53.0767 33.6788 45.7978 46.2924L43.4469 44.9135Z" fill="#62C4F6"/>
<path d="M89.2675 113C83.1189 113 75.3201 109.293 67.1823 102.285C58.0951 94.4639 48.8496 82.8223 41.1186 69.4627C33.5233 56.3517 28.0981 42.7208 25.815 31.034C24.4813 24.2073 24.2326 17.9457 25.0916 12.9047C26.0411 7.4117 28.279 3.50102 31.6019 1.57959C38.3382 -2.33109 49.799 1.69262 61.4632 12.0683C69.7367 19.415 78.417 30.5819 85.8993 43.512C93.8789 57.3011 99.2363 70.299 101.361 81.1043C102.74 88.1118 102.966 94.6221 101.994 99.9117C100.954 105.54 98.6034 109.541 95.2126 111.508C93.5172 112.503 91.5054 113 89.2675 113ZM45.8205 66.75C53.1445 79.4089 62.2318 90.8697 70.7313 98.1711C80.9262 106.942 89.0188 108.841 92.5226 106.806C96.162 104.704 98.8294 96.0914 96.0716 82.1667C94.0371 71.9492 88.9058 59.5164 81.22 46.2472C74.009 33.7918 65.713 23.0996 57.869 16.1373C46.8829 6.37187 37.9765 4.17917 34.3371 6.28145C32.4835 7.34389 31.1046 10.0339 30.449 13.8315C29.7031 18.2169 29.9291 23.823 31.1498 29.9942C33.3199 41.0933 38.5191 54.1364 45.8205 66.75Z" fill="#62C4F6"/>
</svg>
