<svg width="306" height="306" viewBox="0 0 306 306" fill="none" xmlns="http://www.w3.org/2000/svg">
<circle cx="153" cy="153" r="153" fill="#62C4F6"/>
<path d="M153.236 173.859C164.606 173.859 173.823 164.642 173.823 153.272C173.823 141.902 164.606 132.685 153.236 132.685C141.866 132.685 132.649 141.902 132.649 153.272C132.649 164.642 141.866 173.859 153.236 173.859Z" fill="white"/>
<path d="M153.236 200.432C124.324 200.432 99.0627 197.029 80.1575 190.549C67.8957 186.366 57.4794 180.789 50.0567 174.433C42.1829 167.707 38 160.366 38 153.272C38 139.657 52.9274 126.329 77.984 117.635C98.4886 110.499 125.227 106.521 153.195 106.521C180.671 106.521 207.04 110.376 227.422 117.43C239.355 121.531 249.402 126.862 256.538 132.767C264.289 139.247 268.39 146.341 268.39 153.272C268.39 167.42 251.699 181.732 224.797 190.631C205.769 196.947 180.343 200.432 153.236 200.432ZM153.236 116.364C126.703 116.364 100.457 120.218 81.2647 126.903C58.2175 134.941 47.8832 145.931 47.8832 153.272C47.8832 160.9 58.9967 172.915 83.3562 181.24C101.236 187.351 125.432 190.59 153.236 190.59C179.318 190.59 203.636 187.31 221.721 181.281C247.024 172.874 258.589 160.859 258.589 153.272C258.589 149.376 255.636 144.783 250.264 140.313C244.071 135.146 235.049 130.43 224.264 126.698C204.866 120.054 179.646 116.364 153.236 116.364Z" fill="white"/>
<path d="M106.526 255.877C102.343 255.877 98.6526 254.975 95.5359 253.17C83.7662 246.363 79.6653 226.76 84.6274 200.72C88.6873 179.354 98.6115 154.256 112.596 130.02C126.334 106.234 142.819 85.3196 159.1 71.1714C168.614 62.8876 178.251 56.8182 186.945 53.6195C196.419 50.1337 204.62 50.1337 210.608 53.5785C222.869 60.6321 226.929 82.2849 221.188 110.007C217.128 129.692 207.45 153.436 193.917 176.934C179.482 201.95 163.898 222.126 148.848 235.29C139.088 243.82 129.04 250.054 119.854 253.293C115.056 255.016 110.545 255.877 106.526 255.877ZM116.82 132.48L121.085 134.941C107.839 157.906 98.0374 182.552 94.2646 202.565C89.7125 226.555 94.1005 240.991 100.416 244.64C101.974 245.543 104.025 246.035 106.526 246.035C114.687 246.035 127.523 240.868 142.368 227.909C156.599 215.483 171.485 196.126 185.387 172.054C198.428 149.458 207.696 126.739 211.551 108.08C216.923 81.9568 212.289 65.9633 205.687 62.1494C202.324 60.222 196.87 60.468 190.308 62.8876C182.721 65.6762 174.151 71.1304 165.539 78.6351C150.078 92.0861 134.29 112.099 121.085 134.982L116.82 132.48Z" fill="white"/>
<path d="M199.945 256C188.791 256 174.643 249.274 159.879 236.562C143.394 222.372 126.621 201.253 112.596 177.016C98.8167 153.231 88.9745 128.502 84.8325 107.301C82.413 94.9158 81.9619 83.5562 83.5202 74.4112C85.2426 64.4459 89.3025 57.3514 95.3309 53.8656C107.552 46.771 128.343 54.0706 149.504 72.8938C164.513 86.2218 180.261 106.48 193.835 129.938C208.311 154.953 218.03 178.534 221.885 198.136C224.387 210.849 224.797 222.66 223.034 232.256C221.147 242.467 216.882 249.726 210.731 253.293C207.655 255.098 204.005 256 199.945 256ZM121.126 172.095C134.413 195.06 150.898 215.852 166.318 229.098C184.813 245.01 199.494 248.454 205.851 244.763C212.453 240.95 217.292 225.325 212.289 200.063C208.598 181.527 199.289 158.972 185.346 134.9C172.264 112.304 157.214 92.9063 142.984 80.2755C123.053 62.5595 106.895 58.5816 100.293 62.3955C96.9303 64.3229 94.4287 69.203 93.2394 76.0926C91.8861 84.0484 92.2962 94.2186 94.5107 105.414C98.4476 125.55 107.88 149.212 121.126 172.095Z" fill="white"/>
</svg>
