<svg width="144" height="144" viewBox="0 0 144 144" fill="none" xmlns="http://www.w3.org/2000/svg">
<path d="M71.9499 83.52C78.3834 83.52 83.5989 78.3045 83.5989 71.871C83.5989 65.4374 78.3834 60.2219 71.9499 60.2219C65.5163 60.2219 60.3008 65.4374 60.3008 71.871C60.3008 78.3045 65.5163 83.52 71.9499 83.52Z" fill="#9E9E9E"/>
<path d="M71.9498 98.5572C55.5901 98.5572 41.2957 96.6312 30.5981 92.9648C23.6597 90.5978 17.7656 87.4419 13.5655 83.8451C9.11007 80.0394 6.74313 75.8857 6.74313 71.8712C6.74313 64.1671 15.1898 56.6254 29.3682 51.7059C40.9708 47.6681 56.1006 45.4172 71.9266 45.4172C87.4741 45.4172 102.395 47.5985 113.928 51.5898C120.681 53.9103 126.366 56.927 130.404 60.2686C134.79 63.935 137.11 67.9495 137.11 71.8712C137.11 79.877 127.666 87.9756 112.443 93.0112C101.676 96.5848 87.2885 98.5572 71.9498 98.5572ZM71.9498 50.9865C56.936 50.9865 42.0847 53.1678 31.2246 56.9502C18.1833 61.4985 12.3356 67.7175 12.3356 71.8712C12.3356 76.1874 18.6242 82.9865 32.4081 87.6972C42.5256 91.1547 56.2167 92.988 71.9498 92.988C86.7083 92.988 100.469 91.1315 110.703 87.7204C125.02 82.9633 131.564 76.1642 131.564 71.8712C131.564 69.6667 129.893 67.0677 126.853 64.5383C123.349 61.6145 118.244 58.9459 112.141 56.8342C101.165 53.075 86.894 50.9865 71.9498 50.9865Z" fill="#9E9E9E"/>
<path d="M45.519 129.93C43.152 129.93 41.0636 129.42 39.3 128.399C32.6401 124.547 30.3195 113.455 33.1274 98.7194C35.4247 86.6295 41.0404 72.4279 48.9533 58.7136C56.7271 45.2545 66.0556 33.4199 75.2681 25.4141C80.6517 20.7266 86.1049 17.2923 91.0244 15.4822C96.3848 13.5098 101.026 13.5098 104.414 15.459C111.352 19.4503 113.65 31.7027 110.401 47.3894C108.103 58.5279 102.627 71.9638 94.9693 85.2604C86.8011 99.4155 77.9831 110.833 69.4668 118.281C63.9439 123.108 58.2586 126.635 53.0607 128.468C50.3457 129.443 47.7931 129.93 45.519 129.93ZM51.3435 60.1059L53.7568 61.4982C46.2615 74.4931 40.7155 88.4395 38.5806 99.7636C36.0048 113.339 38.4878 121.507 42.0614 123.572C42.9432 124.083 44.1035 124.361 45.519 124.361C50.1368 124.361 57.4001 121.437 65.8003 114.104C73.8526 107.073 82.2761 96.1204 90.1426 82.4989C97.5219 69.7129 102.766 56.8572 104.948 46.2988C107.987 31.5171 105.365 22.467 101.629 20.3089C99.7264 19.2183 96.6401 19.3575 92.9273 20.7266C88.6343 22.3046 83.7844 25.3909 78.9113 29.6374C70.1629 37.2487 61.2289 48.5729 53.7568 61.5214L51.3435 60.1059Z" fill="#9E9E9E"/>
<path d="M98.3806 130C92.0687 130 84.0629 126.194 75.7091 119.001C66.3806 110.972 56.8896 99.021 48.9534 85.3067C41.1565 71.8477 35.5872 57.8549 33.2435 45.8578C31.8744 38.8499 31.6191 32.422 32.5009 27.2473C33.4756 21.6084 35.7729 17.5939 39.184 15.6214C46.0992 11.6069 57.8642 15.7375 69.8381 26.3887C78.3312 33.9304 87.2421 45.3937 94.923 58.6671C103.114 72.8223 108.614 86.1653 110.795 97.2574C112.211 104.451 112.443 111.134 111.445 116.564C110.378 122.342 107.964 126.45 104.484 128.468C102.743 129.489 100.678 130 98.3806 130ZM53.7801 82.5221C61.2986 95.517 70.6271 107.282 79.3523 114.777C89.8178 123.781 98.1253 125.73 101.722 123.642C105.458 121.484 108.196 112.642 105.365 98.3481C103.277 87.8593 98.0093 75.0964 90.1195 61.475C82.717 48.6889 74.2007 37.7128 66.1485 30.5656C54.8708 20.5409 45.7279 18.29 41.9919 20.4481C40.089 21.5388 38.6735 24.3002 38.0006 28.1987C37.2348 32.7005 37.4669 38.4554 38.7199 44.7904C40.9476 56.1842 46.2848 69.5736 53.7801 82.5221Z" fill="#9E9E9E"/>
</svg>
