<svg width="148" height="148" viewBox="0 0 148 148" fill="none" xmlns="http://www.w3.org/2000/svg">
<path d="M74.1202 72.2067C94.0115 72.2067 110.194 56.0239 110.194 36.1326C110.194 16.2413 94.0115 0.0584717 74.1202 0.0584717C54.2289 0.0584717 38.0461 16.2413 38.0461 36.1326C38.0461 56.0239 54.2289 72.2067 74.1202 72.2067ZM74.1202 8.71626C89.2371 8.71626 101.537 21.0157 101.537 36.1326C101.537 51.2495 89.2371 63.5489 74.1202 63.5489C59.0033 63.5489 46.7039 51.2495 46.7039 36.1326C46.7039 21.0157 59.0033 8.71626 74.1202 8.71626Z" fill="#8582D9"/>
<path d="M135.013 13.6223C127.853 13.6223 122.027 19.4483 122.027 26.609V61.9842C117.458 60.378 112.162 61.3953 108.515 65.0442L76.1187 97.4396C75.3927 98.1656 74.7281 98.9367 74.1202 99.7439C73.5124 98.9367 72.8477 98.1656 72.1217 97.4396L39.7253 65.0442C36.0783 61.3971 30.7826 60.378 26.2138 61.9842V26.609C26.2138 19.4483 20.3878 13.6223 13.2271 13.6223C6.06639 13.6223 0.240417 19.4483 0.240417 26.609V89.5953L26.2138 131.73V147.818H122.027V131.73L148 89.5953V26.609C148 19.4483 142.174 13.6223 135.013 13.6223ZM8.89821 87.1405V26.609C8.89821 24.2227 10.8408 22.2801 13.2271 22.2801C15.6134 22.2801 17.556 24.2227 17.556 26.609V74.3711C17.5966 77.7855 18.9412 80.9907 21.36 83.4095L53.7456 115.794L59.8664 109.673L27.4818 77.2877C25.7944 75.5994 25.7944 72.8542 27.4818 71.1659C29.1701 69.4786 31.9153 69.4786 33.6036 71.1659L65.999 103.562C68.444 106.007 69.7913 109.272 69.7913 112.754V139.16H34.8716V129.275L8.89821 87.1405ZM139.342 87.1405L113.369 129.275V139.16H78.4491V112.754C78.4491 109.272 79.7965 106.007 82.2414 103.562L114.637 71.1659C116.325 69.4786 119.07 69.4786 120.759 71.1659C121.577 71.983 122.027 73.0707 122.027 74.2268C122.027 75.383 121.577 76.4706 120.759 77.2886L88.374 109.673L94.4949 115.794L126.88 83.4095C129.376 80.915 130.638 77.6485 130.675 74.3711C130.684 74.3711 130.684 26.609 130.684 26.609C130.684 24.2227 132.627 22.2801 135.013 22.2801C137.4 22.2801 139.342 24.2227 139.342 26.609V87.1405Z" fill="#8582D9"/>
</svg>
