<svg width="146" height="125" viewBox="0 0 146 125" fill="none" xmlns="http://www.w3.org/2000/svg">
<path d="M48.6219 92.4052V84.1978L31.8568 78.6555L29.7765 77.9286L31.8568 77.1714L48.6219 71.5383V63.3611L21.5469 74.476V81.2903L48.6219 92.4052Z" fill="white"/>
<path d="M69.0582 100.552L85.7315 52.6702H77.8078L61.1345 100.552H69.0582Z" fill="white"/>
<path d="M96.9592 92.4355L124.493 81.3206V74.4457L96.9592 63.3611V71.508L114.52 77.232L116.355 77.8377L114.489 78.4435L96.9592 84.2583V92.4355Z" fill="white"/>
<path fill-rule="evenodd" clip-rule="evenodd" d="M135.242 10H10L9.99999 114.493H135.242L135.242 10ZM10 0C4.47715 0 0 4.47715 0 10V114.493C0 120.016 4.47714 124.493 9.99999 124.493H135.242C140.765 124.493 145.242 120.016 145.242 114.493V10C145.242 4.47715 140.765 0 135.242 0H10Z" fill="white"/>
<path fill-rule="evenodd" clip-rule="evenodd" d="M141.252 38.5176H3.99023V28.5176H141.252V38.5176Z" fill="white"/>
</svg>
