<svg width="33" height="33" viewBox="0 0 33 33" fill="none" xmlns="http://www.w3.org/2000/svg">
<path fill-rule="evenodd" clip-rule="evenodd" d="M28.192 4.79562C25.0899 1.70478 20.9643 0.00173725 16.5689 0C7.51233 0 0.141395 7.33513 0.137771 16.3512C0.136563 19.2332 0.893205 22.0465 2.33101 24.5263L0 33L8.71038 30.7261C11.1103 32.0288 13.8123 32.7153 16.5623 32.7165H16.5691C25.6247 32.7165 32.9963 25.3804 33 16.3643C33.0017 11.9949 31.2943 7.88647 28.192 4.79562ZM16.5691 29.9546H16.5635C14.113 29.9537 11.7094 29.2985 9.61263 28.0602L9.1139 27.7656L3.9451 29.115L5.32478 24.0996L5.00002 23.5854C3.63296 21.4214 2.9109 18.9203 2.91198 16.3522C2.91498 8.85844 9.04145 2.76179 16.5745 2.76179C20.2222 2.76317 23.6511 4.17877 26.2296 6.74776C28.808 9.31676 30.2272 12.7316 30.2258 16.3632C30.2227 23.8575 24.0963 29.9546 16.5691 29.9546ZM24.0601 19.7755C23.6495 19.571 21.6311 18.5825 21.2547 18.4461C20.8784 18.3098 20.6048 18.2416 20.331 18.6507C20.0573 19.0597 19.2705 19.98 19.031 20.2527C18.7915 20.5254 18.5521 20.5595 18.1415 20.355C17.7309 20.1505 16.4081 19.719 14.8399 18.327C13.6195 17.2437 12.7954 15.9055 12.556 15.4965C12.3165 15.0875 12.5305 14.8663 12.736 14.6627C12.9207 14.4796 13.1466 14.1854 13.3519 13.9468C13.5571 13.7082 13.6255 13.5378 13.7624 13.2651C13.8992 12.9924 13.8308 12.7538 13.7282 12.5493C13.6255 12.3448 12.8045 10.3337 12.4623 9.51561C12.1291 8.71888 11.7906 8.82668 11.5386 8.81421C11.2994 8.80236 11.0254 8.79982 10.7518 8.79982C10.478 8.79982 10.0333 8.90209 9.65693 9.31111C9.28062 9.72016 8.22007 10.7087 8.22007 12.7197C8.22007 14.7308 9.69116 16.6737 9.89645 16.9464C10.1017 17.2191 12.7914 21.3461 16.9099 23.116C17.8894 23.5369 18.6541 23.7883 19.2504 23.9767C20.2339 24.2876 21.1289 24.2437 21.8363 24.1385C22.6251 24.0212 24.2653 23.1501 24.6075 22.1957C24.9496 21.2412 24.9496 20.4232 24.847 20.2527C24.7444 20.0823 24.4707 19.98 24.0601 19.7755Z" fill="#9E9E9E"/>
</svg>
